<?xml version="1.0" encoding="UTF-8"?>
<svg xmlns="http://www.w3.org/2000/svg" xmlns:xlink="http://www.w3.org/1999/xlink" width="50pt" height="51pt" viewBox="0 0 50 51" version="1.1">
<g id="surface1">
<path style=" stroke:none;fill-rule:nonzero;fill:rgb(0%,0%,0%);fill-opacity:1;" d="M 23.75 7.191406 C 23.625 7.363281 23.660156 7.488281 23.898438 7.75 C 24.121094 8 24.238281 8.308594 24.238281 8.632812 C 24.238281 8.789062 24.175781 8.789062 23.742188 8.636719 C 23.566406 8.574219 23.175781 8.476562 22.878906 8.425781 C 22.386719 8.34375 22.335938 8.339844 22.226562 8.410156 C 21.941406 8.59375 21.988281 8.816406 22.359375 9.046875 C 22.609375 9.207031 22.71875 9.339844 22.75 9.546875 C 22.789062 9.757812 22.746094 9.8125 22.492188 9.863281 C 21.742188 10.027344 21.132812 10.242188 20.3125 10.65625 L 19.683594 10.972656 L 19.582031 10.867188 C 19.527344 10.8125 19.484375 10.753906 19.484375 10.734375 C 19.484375 10.707031 19.046875 10.089844 18.816406 9.796875 C 18.472656 9.363281 17.527344 8.542969 17.109375 8.3125 C 16.929688 8.214844 16.308594 7.910156 16.167969 7.851562 C 16.089844 7.820312 15.945312 7.761719 15.847656 7.71875 C 15.746094 7.675781 15.632812 7.644531 15.585938 7.644531 C 15.546875 7.644531 15.421875 7.613281 15.320312 7.574219 C 15.050781 7.480469 14 7.480469 13.777344 7.574219 C 13.679688 7.613281 13.519531 7.644531 13.417969 7.644531 C 13.3125 7.644531 13.171875 7.667969 13.097656 7.695312 C 13.027344 7.722656 12.863281 7.765625 12.730469 7.789062 C 12.472656 7.835938 12.4375 7.847656 12.023438 8.042969 C 11.769531 8.164062 11.742188 8.191406 11.726562 8.332031 C 11.71875 8.417969 11.742188 8.519531 11.773438 8.5625 C 11.910156 8.730469 12.011719 8.949219 11.96875 8.992188 C 11.945312 9.015625 11.796875 9.074219 11.644531 9.128906 C 11.492188 9.183594 11.3125 9.246094 11.25 9.273438 C 11.183594 9.304688 11.058594 9.355469 10.980469 9.390625 C 10.652344 9.53125 10.460938 9.621094 10.117188 9.816406 C 9.808594 9.992188 9.382812 10.265625 9.320312 10.332031 C 9.304688 10.34375 9.199219 10.429688 9.082031 10.523438 C 8.78125 10.761719 8.433594 11.105469 8.1875 11.398438 C 8.070312 11.535156 7.96875 11.660156 7.949219 11.675781 C 7.820312 11.78125 7.214844 12.925781 7.117188 13.25 C 6.878906 14.011719 6.824219 14.378906 6.796875 15.242188 C 6.773438 15.894531 6.78125 16.113281 6.84375 16.367188 C 6.886719 16.542969 6.917969 16.785156 6.917969 16.910156 C 6.917969 17.035156 6.941406 17.191406 6.96875 17.265625 C 7 17.335938 7.039062 17.511719 7.058594 17.652344 C 7.078125 17.789062 7.121094 17.980469 7.152344 18.070312 C 7.1875 18.15625 7.234375 18.292969 7.261719 18.359375 C 7.382812 18.703125 7.609375 18.800781 7.898438 18.636719 C 8.015625 18.574219 8.046875 18.570312 8.113281 18.621094 C 8.15625 18.652344 8.1875 18.707031 8.1875 18.742188 C 8.1875 18.769531 8.257812 18.953125 8.34375 19.144531 C 8.867188 20.324219 9.742188 21.199219 11.011719 21.804688 C 11.535156 22.046875 11.53125 22.046875 11.8125 22.121094 C 12.5625 22.320312 13 22.378906 13.78125 22.378906 C 14.214844 22.378906 14.589844 22.394531 14.613281 22.414062 C 14.640625 22.433594 14.699219 22.570312 14.746094 22.726562 C 14.792969 22.878906 14.851562 23.0625 14.882812 23.140625 C 14.90625 23.214844 14.941406 23.339844 14.964844 23.417969 C 15.046875 23.714844 15.203125 23.996094 15.546875 24.4375 C 15.964844 24.984375 16.21875 25.253906 16.558594 25.503906 C 16.78125 25.671875 16.800781 25.699219 16.800781 25.878906 C 16.800781 25.992188 16.777344 26.09375 16.75 26.105469 C 16.726562 26.125 16.679688 26.1875 16.65625 26.238281 C 16.632812 26.292969 16.570312 26.398438 16.519531 26.476562 C 16.46875 26.550781 16.40625 26.660156 16.378906 26.710938 C 16.351562 26.761719 16.265625 26.902344 16.191406 27.035156 C 16.015625 27.316406 15.546875 28.269531 15.3125 28.792969 C 15.28125 28.867188 15.191406 29.066406 15.113281 29.234375 C 15.03125 29.402344 14.964844 29.574219 14.964844 29.609375 C 14.964844 29.652344 14.933594 29.710938 14.894531 29.742188 C 14.859375 29.777344 14.824219 29.851562 14.824219 29.90625 C 14.824219 29.964844 14.8125 30.023438 14.792969 30.03125 C 14.722656 30.058594 14.410156 30.921875 14.183594 31.691406 C 14.140625 31.828125 14.082031 32.039062 14.042969 32.152344 C 14.007812 32.269531 13.976562 32.429688 13.976562 32.519531 C 13.976562 32.605469 13.945312 32.804688 13.90625 32.964844 C 13.800781 33.390625 13.828125 35.425781 13.949219 35.71875 C 14.101562 36.09375 14.261719 36.382812 14.433594 36.574219 C 14.753906 36.9375 14.804688 36.996094 14.953125 37.179688 C 15.066406 37.328125 15.160156 37.382812 15.390625 37.453125 C 15.691406 37.550781 15.953125 37.78125 15.953125 37.953125 C 15.953125 37.996094 15.976562 38.046875 16.007812 38.058594 C 16.03125 38.078125 16.078125 38.140625 16.101562 38.191406 C 16.125 38.246094 16.183594 38.351562 16.238281 38.429688 C 16.289062 38.503906 16.34375 38.601562 16.359375 38.640625 C 16.378906 38.675781 16.425781 38.746094 16.457031 38.789062 C 16.570312 38.917969 16.515625 38.996094 16.121094 39.25 C 15.703125 39.523438 15.398438 39.859375 15.300781 40.152344 C 15.183594 40.511719 15.378906 41.039062 15.753906 41.34375 C 16.03125 41.570312 16.78125 41.871094 17.578125 42.070312 C 17.722656 42.105469 18.28125 42.136719 19.050781 42.152344 C 20.332031 42.167969 20.597656 42.144531 21.230469 41.953125 C 21.351562 41.914062 21.476562 41.882812 21.503906 41.882812 C 21.53125 41.882812 21.710938 41.808594 21.902344 41.71875 C 22.097656 41.632812 22.269531 41.558594 22.289062 41.558594 C 22.308594 41.558594 22.398438 41.488281 22.496094 41.40625 C 22.589844 41.328125 22.707031 41.222656 22.761719 41.1875 C 22.808594 41.144531 22.914062 41.035156 22.996094 40.9375 L 23.144531 40.761719 L 23.796875 40.792969 C 24.617188 40.832031 25.078125 40.832031 25.894531 40.792969 L 26.539062 40.761719 L 26.835938 41.058594 C 27.199219 41.417969 27.347656 41.539062 27.484375 41.582031 C 27.542969 41.601562 27.710938 41.671875 27.863281 41.746094 C 28.015625 41.820312 28.164062 41.882812 28.195312 41.882812 C 28.222656 41.882812 28.347656 41.914062 28.46875 41.953125 C 29.050781 42.128906 29.34375 42.160156 30.476562 42.15625 C 31.097656 42.15625 31.695312 42.136719 31.816406 42.117188 C 32.703125 41.957031 33.410156 41.730469 33.769531 41.488281 C 33.988281 41.34375 34.242188 41.070312 34.296875 40.917969 C 34.472656 40.425781 34.480469 40.386719 34.375 40.074219 C 34.320312 39.902344 34.230469 39.785156 34.003906 39.578125 C 33.648438 39.253906 33.570312 39.195312 33.523438 39.195312 C 33.5 39.195312 33.425781 39.140625 33.355469 39.074219 L 33.222656 38.953125 L 33.347656 38.742188 C 33.417969 38.621094 33.5 38.492188 33.527344 38.453125 C 33.589844 38.378906 33.6875 38.175781 33.816406 37.867188 C 33.886719 37.699219 33.933594 37.660156 34.113281 37.597656 C 34.230469 37.558594 34.367188 37.527344 34.414062 37.527344 C 34.589844 37.527344 35.1875 37.003906 35.3125 36.738281 C 35.332031 36.703125 35.386719 36.605469 35.4375 36.53125 C 35.492188 36.453125 35.542969 36.359375 35.5625 36.324219 C 35.574219 36.285156 35.617188 36.199219 35.65625 36.128906 C 35.691406 36.0625 35.722656 35.964844 35.722656 35.914062 C 35.722656 35.863281 35.75 35.753906 35.785156 35.667969 C 35.984375 35.183594 35.976562 33.714844 35.769531 32.640625 C 35.691406 32.257812 35.425781 31.3125 35.339844 31.132812 C 35.324219 31.097656 35.269531 30.9375 35.222656 30.785156 C 35.175781 30.632812 35.09375 30.414062 35.046875 30.300781 C 35 30.183594 34.941406 30.039062 34.910156 29.976562 C 34.886719 29.910156 34.835938 29.800781 34.796875 29.730469 C 34.761719 29.65625 34.734375 29.566406 34.734375 29.535156 C 34.734375 29.503906 34.699219 29.414062 34.660156 29.339844 C 34.597656 29.214844 34.105469 28.195312 34.023438 28.007812 C 34 27.957031 33.960938 27.882812 33.9375 27.84375 C 33.914062 27.808594 33.878906 27.742188 33.863281 27.707031 C 33.847656 27.667969 33.761719 27.511719 33.671875 27.359375 C 33.589844 27.203125 33.464844 26.988281 33.410156 26.871094 C 33.355469 26.753906 33.257812 26.589844 33.203125 26.5 C 33.039062 26.242188 32.804688 25.800781 32.804688 25.765625 C 32.804688 25.746094 32.882812 25.691406 32.980469 25.640625 C 33.226562 25.519531 34.082031 24.65625 34.222656 24.382812 C 34.289062 24.261719 34.390625 24.085938 34.441406 24 C 34.492188 23.910156 34.582031 23.742188 34.636719 23.628906 C 34.695312 23.511719 34.769531 23.363281 34.808594 23.292969 C 34.84375 23.230469 34.875 23.113281 34.875 23.042969 C 34.875 22.976562 34.90625 22.792969 34.949219 22.644531 L 35.027344 22.378906 L 35.832031 22.378906 C 36.277344 22.378906 36.714844 22.355469 36.804688 22.332031 C 36.894531 22.304688 37.132812 22.261719 37.339844 22.238281 C 37.542969 22.214844 37.796875 22.15625 37.90625 22.105469 C 38.007812 22.058594 38.148438 22.003906 38.214844 21.984375 C 38.375 21.941406 39.011719 21.636719 39.042969 21.585938 C 39.058594 21.5625 39.09375 21.542969 39.132812 21.542969 C 39.359375 21.542969 40.664062 20.445312 40.664062 20.253906 C 40.664062 20.226562 40.679688 20.199219 40.699219 20.199219 C 40.722656 20.199219 40.765625 20.152344 40.800781 20.09375 C 40.828125 20.039062 40.894531 19.925781 40.945312 19.851562 C 40.996094 19.773438 41.058594 19.671875 41.085938 19.621094 C 41.109375 19.570312 41.152344 19.496094 41.175781 19.457031 C 41.285156 19.289062 41.511719 18.777344 41.511719 18.710938 C 41.511719 18.636719 41.652344 18.484375 41.71875 18.484375 C 41.734375 18.484375 41.78125 18.519531 41.824219 18.554688 C 41.871094 18.605469 41.964844 18.625 42.109375 18.617188 L 42.320312 18.601562 L 42.402344 18.324219 C 42.535156 17.886719 42.597656 17.652344 42.640625 17.375 C 42.65625 17.234375 42.699219 17.058594 42.730469 16.988281 C 42.757812 16.914062 42.78125 16.769531 42.78125 16.664062 C 42.78125 16.558594 42.8125 16.289062 42.851562 16.066406 C 42.917969 15.703125 42.917969 15.617188 42.851562 15.257812 C 42.8125 15.03125 42.78125 14.636719 42.78125 14.371094 C 42.78125 14.050781 42.757812 13.839844 42.710938 13.726562 C 42.671875 13.640625 42.640625 13.523438 42.640625 13.480469 C 42.640625 13.4375 42.609375 13.339844 42.574219 13.265625 C 42.535156 13.195312 42.4375 12.96875 42.347656 12.765625 C 42.164062 12.324219 42.09375 12.183594 41.910156 11.90625 C 41.585938 11.410156 40.804688 10.613281 40.296875 10.265625 C 39.90625 9.996094 39.207031 9.589844 39.140625 9.589844 C 39.109375 9.589844 39.058594 9.566406 39.03125 9.539062 C 39 9.511719 38.90625 9.472656 38.824219 9.453125 C 38.601562 9.398438 38.355469 9.3125 38.203125 9.238281 C 38.125 9.199219 38.027344 9.171875 37.984375 9.171875 C 37.9375 9.171875 37.84375 9.132812 37.777344 9.082031 C 37.636719 8.96875 37.644531 8.929688 37.847656 8.621094 C 38.027344 8.359375 38.007812 8.257812 37.746094 8.121094 C 37.628906 8.0625 37.515625 7.992188 37.492188 7.96875 C 37.460938 7.941406 37.40625 7.921875 37.359375 7.921875 C 37.316406 7.921875 37.207031 7.894531 37.125 7.859375 C 36.457031 7.578125 36.078125 7.503906 35.289062 7.503906 C 34.917969 7.503906 34.539062 7.527344 34.449219 7.554688 C 34.359375 7.578125 34.191406 7.621094 34.074219 7.644531 C 33.722656 7.710938 33.179688 7.933594 32.683594 8.21875 C 31.820312 8.722656 30.804688 9.753906 30.207031 10.730469 C 30.121094 10.863281 30.023438 10.980469 29.984375 10.980469 C 29.945312 10.980469 29.820312 10.925781 29.703125 10.851562 C 29.582031 10.78125 29.339844 10.65625 29.15625 10.574219 C 28.976562 10.484375 28.789062 10.394531 28.746094 10.375 C 28.605469 10.304688 27.949219 10.078125 27.460938 9.9375 C 27.003906 9.804688 26.96875 9.785156 26.96875 9.671875 C 26.96875 9.613281 26.933594 9.507812 26.898438 9.433594 C 26.859375 9.363281 26.824219 9.265625 26.824219 9.21875 C 26.824219 9.046875 26.472656 8.457031 26.195312 8.164062 C 25.78125 7.726562 25.351562 7.464844 24.6875 7.230469 C 24.179688 7.054688 23.851562 7.042969 23.75 7.191406 Z M 25.617188 8.589844 C 25.765625 8.738281 25.933594 8.945312 25.984375 9.042969 C 26.132812 9.335938 26.261719 9.765625 26.261719 9.992188 C 26.261719 10.289062 26.421875 10.433594 26.824219 10.511719 C 27.167969 10.578125 27.71875 10.730469 27.933594 10.8125 C 28.011719 10.847656 28.148438 10.902344 28.238281 10.933594 C 28.605469 11.066406 29.269531 11.402344 29.40625 11.523438 C 29.4375 11.554688 29.488281 11.582031 29.511719 11.582031 C 29.535156 11.582031 29.644531 11.644531 29.753906 11.722656 C 29.894531 11.824219 30 11.859375 30.144531 11.859375 C 30.390625 11.859375 30.417969 11.832031 30.683594 11.3125 C 30.742188 11.207031 30.816406 11.089844 30.84375 11.058594 C 30.878906 11.027344 30.957031 10.910156 31.027344 10.792969 C 31.09375 10.679688 31.1875 10.542969 31.234375 10.492188 C 31.28125 10.441406 31.382812 10.328125 31.457031 10.238281 C 32.140625 9.410156 32.902344 8.847656 33.910156 8.425781 C 34.46875 8.195312 35.726562 8.148438 36.398438 8.335938 C 36.601562 8.390625 36.824219 8.464844 36.886719 8.496094 L 37 8.558594 L 36.785156 8.796875 C 36.667969 8.929688 36.566406 9.074219 36.566406 9.128906 C 36.566406 9.398438 36.738281 9.539062 37.195312 9.636719 C 37.796875 9.761719 38.75 10.144531 39.339844 10.503906 C 39.484375 10.589844 39.644531 10.683594 39.699219 10.714844 C 39.75 10.75 39.800781 10.78125 39.816406 10.792969 C 39.828125 10.808594 39.988281 10.9375 40.167969 11.082031 C 40.625 11.445312 40.984375 11.824219 41.253906 12.230469 C 41.703125 12.902344 41.941406 13.472656 42.132812 14.339844 C 42.210938 14.710938 42.210938 16.132812 42.132812 16.585938 C 42.074219 16.898438 42.050781 17.03125 41.949219 17.527344 C 41.914062 17.699219 41.816406 17.730469 41.652344 17.632812 C 41.351562 17.460938 41.082031 17.574219 40.996094 17.914062 C 40.675781 19.191406 40.050781 20.164062 39.179688 20.734375 C 39.054688 20.820312 38.902344 20.925781 38.847656 20.976562 C 38.792969 21.027344 38.675781 21.085938 38.59375 21.101562 C 38.503906 21.121094 38.402344 21.167969 38.367188 21.199219 C 38.332031 21.238281 38.261719 21.265625 38.210938 21.265625 C 38.160156 21.265625 38.105469 21.296875 38.09375 21.335938 C 38.074219 21.382812 38 21.40625 37.859375 21.40625 C 37.746094 21.40625 37.652344 21.421875 37.652344 21.445312 C 37.652344 21.484375 37.25 21.566406 36.710938 21.640625 C 36.539062 21.664062 35.992188 21.679688 35.496094 21.671875 C 34.765625 21.667969 34.574219 21.683594 34.515625 21.734375 C 34.441406 21.8125 34.332031 22.195312 34.285156 22.570312 C 34.269531 22.71875 34.234375 22.851562 34.210938 22.863281 C 34.1875 22.882812 34.167969 22.933594 34.167969 22.980469 C 34.167969 23.074219 33.847656 23.804688 33.769531 23.886719 C 33.746094 23.921875 33.679688 24 33.625 24.074219 C 33.273438 24.554688 32.96875 24.84375 32.449219 25.179688 C 32.109375 25.398438 31.324219 25.816406 31.085938 25.902344 C 30.808594 26 30.488281 26.078125 30.238281 26.105469 C 30.082031 26.121094 29.886719 26.144531 29.796875 26.15625 C 29.636719 26.179688 29.636719 26.1875 29.730469 26.273438 C 29.851562 26.394531 30.261719 26.453125 31 26.453125 L 31.578125 26.453125 L 31.664062 26.648438 C 31.757812 26.863281 31.867188 27.128906 31.976562 27.414062 C 32.078125 27.683594 32.261719 28.164062 32.375 28.445312 C 32.425781 28.589844 32.472656 28.738281 32.472656 28.78125 C 32.472656 28.820312 32.492188 28.867188 32.515625 28.886719 C 32.539062 28.902344 32.574219 28.980469 32.589844 29.0625 C 32.628906 29.226562 32.746094 29.625 32.808594 29.765625 C 32.832031 29.816406 32.875 29.953125 32.902344 30.066406 C 33.011719 30.515625 33.085938 30.796875 33.160156 31.0625 C 33.566406 32.523438 33.785156 34.59375 33.65625 35.695312 C 33.472656 37.230469 33.085938 38.109375 32.246094 38.902344 C 32.027344 39.117188 31.820312 39.289062 31.785156 39.289062 C 31.753906 39.289062 31.695312 39.316406 31.664062 39.351562 C 31.578125 39.429688 30.90625 39.75 30.816406 39.75 C 30.785156 39.75 30.730469 39.769531 30.707031 39.792969 C 30.660156 39.828125 30.070312 39.964844 29.480469 40.070312 C 29.324219 40.097656 29 40.121094 28.753906 40.121094 C 28.324219 40.121094 28.316406 40.121094 28.402344 40.027344 C 28.449219 39.976562 28.53125 39.925781 28.585938 39.910156 C 28.765625 39.851562 29.183594 39.566406 29.15625 39.519531 C 29.109375 39.445312 28.945312 39.464844 28.449219 39.589844 C 28.195312 39.652344 27.871094 39.726562 27.726562 39.75 C 27.578125 39.773438 27.34375 39.816406 27.203125 39.839844 C 26.179688 40.023438 24.238281 40.09375 23.414062 39.976562 C 23.234375 39.953125 22.925781 39.914062 22.730469 39.890625 C 22.363281 39.847656 21.796875 39.738281 21.507812 39.660156 C 21.066406 39.539062 20.699219 39.46875 20.628906 39.492188 C 20.5625 39.519531 20.5625 39.535156 20.648438 39.609375 C 20.699219 39.660156 20.859375 39.761719 21.003906 39.84375 C 21.4375 40.085938 21.4375 40.121094 21.007812 40.121094 C 20.640625 40.121094 19.941406 40.027344 19.53125 39.933594 C 18.453125 39.667969 17.65625 39.179688 17.074219 38.429688 C 16.8125 38.09375 16.378906 37.25 16.378906 37.082031 C 16.378906 37.046875 16.351562 36.914062 16.3125 36.796875 C 16.277344 36.675781 16.222656 36.453125 16.191406 36.300781 C 16.109375 35.902344 16.078125 34.167969 16.136719 33.660156 C 16.285156 32.542969 16.390625 31.90625 16.542969 31.320312 C 16.585938 31.152344 16.644531 30.902344 16.683594 30.761719 C 16.828125 30.175781 16.851562 30.082031 16.917969 29.90625 C 16.953125 29.804688 17.050781 29.503906 17.132812 29.234375 C 17.214844 28.964844 17.308594 28.683594 17.34375 28.609375 C 17.375 28.53125 17.441406 28.355469 17.488281 28.214844 C 17.53125 28.074219 17.585938 27.941406 17.605469 27.914062 C 17.628906 27.890625 17.648438 27.84375 17.648438 27.808594 C 17.648438 27.769531 17.675781 27.675781 17.714844 27.597656 C 17.753906 27.515625 17.859375 27.25 17.953125 27.011719 C 18.054688 26.769531 18.152344 26.542969 18.179688 26.511719 C 18.207031 26.472656 18.390625 26.453125 18.773438 26.453125 C 19.4375 26.453125 19.898438 26.394531 19.996094 26.292969 C 20.105469 26.1875 20.015625 26.148438 19.605469 26.117188 C 19.300781 26.09375 18.9375 26.007812 18.636719 25.890625 C 17.445312 25.410156 16.628906 24.832031 16.078125 24.074219 C 15.855469 23.765625 15.59375 23.25 15.546875 23.027344 C 15.53125 22.945312 15.496094 22.875 15.480469 22.859375 C 15.457031 22.84375 15.4375 22.789062 15.4375 22.734375 C 15.4375 22.535156 15.285156 21.824219 15.226562 21.746094 C 15.171875 21.671875 15.074219 21.667969 14.253906 21.671875 C 13.054688 21.6875 12.425781 21.605469 11.675781 21.339844 C 10.117188 20.785156 9.140625 19.65625 8.703125 17.914062 C 8.617188 17.574219 8.347656 17.460938 8.046875 17.632812 C 7.808594 17.777344 7.792969 17.75 7.582031 16.65625 C 7.492188 16.214844 7.464844 15.085938 7.53125 14.6875 C 7.636719 14 7.667969 13.871094 7.742188 13.644531 C 8.09375 12.59375 8.679688 11.757812 9.53125 11.082031 C 9.714844 10.933594 9.871094 10.804688 9.875 10.78125 C 9.882812 10.761719 9.910156 10.75 9.933594 10.75 C 9.953125 10.75 10.117188 10.65625 10.292969 10.550781 C 10.917969 10.15625 11.574219 9.886719 12.710938 9.570312 C 13.019531 9.484375 13.078125 9.433594 13.117188 9.207031 C 13.136719 9.066406 13.117188 9.019531 12.917969 8.800781 L 12.699219 8.558594 L 12.8125 8.496094 C 13.460938 8.164062 15.066406 8.125 15.789062 8.425781 C 16.792969 8.847656 17.445312 9.320312 18.160156 10.144531 C 18.238281 10.234375 18.355469 10.367188 18.421875 10.449219 C 18.492188 10.523438 18.597656 10.679688 18.671875 10.792969 C 18.742188 10.910156 18.855469 11.085938 18.929688 11.183594 C 19 11.28125 19.0625 11.382812 19.0625 11.40625 C 19.0625 11.457031 19.253906 11.726562 19.34375 11.800781 C 19.476562 11.90625 19.671875 11.863281 19.992188 11.660156 C 20.339844 11.433594 20.40625 11.402344 20.902344 11.160156 C 21.53125 10.855469 22.457031 10.5625 23.160156 10.449219 C 23.257812 10.433594 23.390625 10.378906 23.457031 10.328125 C 23.566406 10.242188 23.578125 10.195312 23.578125 9.964844 C 23.578125 9.816406 23.554688 9.628906 23.527344 9.546875 C 23.488281 9.445312 23.488281 9.382812 23.523438 9.347656 C 23.589844 9.285156 23.984375 9.472656 24.222656 9.6875 C 24.449219 9.890625 24.589844 9.914062 24.769531 9.777344 C 24.949219 9.636719 25.007812 9.308594 24.976562 8.65625 L 24.949219 8.101562 L 25.144531 8.210938 C 25.25 8.269531 25.460938 8.4375 25.617188 8.589844 Z M 17.179688 26.894531 C 17.179688 26.929688 17.160156 26.964844 17.132812 26.964844 C 17.109375 26.964844 17.097656 26.929688 17.113281 26.894531 C 17.132812 26.859375 17.148438 26.824219 17.160156 26.824219 C 17.167969 26.824219 17.179688 26.859375 17.179688 26.894531 Z M 16.996094 27.34375 C 16.9375 27.507812 16.871094 27.675781 16.847656 27.726562 C 16.824219 27.78125 16.730469 28.046875 16.636719 28.332031 C 16.539062 28.609375 16.445312 28.882812 16.425781 28.933594 C 16.40625 28.984375 16.339844 29.183594 16.285156 29.375 C 16.179688 29.714844 16.160156 29.777344 16.03125 30.230469 C 15.992188 30.355469 15.925781 30.621094 15.882812 30.808594 C 15.839844 31 15.777344 31.28125 15.742188 31.433594 C 15.417969 32.835938 15.324219 33.800781 15.363281 35.28125 C 15.375 35.839844 15.410156 36.378906 15.4375 36.476562 C 15.464844 36.574219 15.484375 36.699219 15.472656 36.75 C 15.460938 36.839844 15.457031 36.839844 15.304688 36.722656 C 14.960938 36.433594 14.640625 35.78125 14.519531 35.113281 C 14.429688 34.617188 14.429688 34.175781 14.519531 33.496094 C 14.585938 33.003906 14.824219 31.929688 14.917969 31.710938 C 14.941406 31.660156 14.976562 31.550781 14.988281 31.46875 C 15.007812 31.382812 15.050781 31.257812 15.089844 31.1875 C 15.125 31.121094 15.15625 31.027344 15.15625 30.984375 C 15.15625 30.945312 15.179688 30.894531 15.203125 30.878906 C 15.230469 30.863281 15.25 30.8125 15.25 30.773438 C 15.25 30.730469 15.28125 30.632812 15.320312 30.558594 C 15.355469 30.488281 15.390625 30.40625 15.390625 30.382812 C 15.390625 30.355469 15.417969 30.273438 15.457031 30.191406 C 15.492188 30.109375 15.578125 29.917969 15.644531 29.765625 C 15.792969 29.402344 16.199219 28.542969 16.382812 28.191406 C 16.46875 28.039062 16.609375 27.765625 16.699219 27.589844 C 16.792969 27.410156 16.882812 27.257812 16.894531 27.242188 C 16.914062 27.226562 16.957031 27.167969 16.984375 27.113281 C 17.09375 26.914062 17.09375 27.046875 16.996094 27.34375 Z M 32.890625 27.4375 C 32.898438 27.460938 32.878906 27.472656 32.855469 27.472656 C 32.796875 27.472656 32.75 27.335938 32.789062 27.273438 C 32.816406 27.226562 32.882812 27.335938 32.890625 27.4375 Z M 33.382812 28.316406 C 33.710938 28.980469 33.96875 29.550781 34.355469 30.460938 C 34.402344 30.582031 34.703125 31.429688 34.769531 31.644531 C 34.796875 31.730469 34.863281 31.980469 34.921875 32.199219 C 34.972656 32.417969 35.039062 32.652344 35.0625 32.730469 C 35.117188 32.90625 35.203125 33.578125 35.234375 34.136719 C 35.296875 35.085938 35.023438 36.03125 34.535156 36.578125 C 34.296875 36.851562 34.269531 36.804688 34.351562 36.214844 C 34.480469 35.234375 34.425781 33.519531 34.234375 32.5 C 34.039062 31.476562 33.90625 30.859375 33.808594 30.578125 C 33.773438 30.460938 33.746094 30.335938 33.746094 30.300781 C 33.746094 30.257812 33.691406 30.0625 33.625 29.859375 C 33.503906 29.476562 33.378906 29.070312 33.242188 28.632812 C 33.195312 28.492188 33.148438 28.355469 33.128906 28.332031 C 33.109375 28.304688 33.082031 28.214844 33.0625 28.132812 C 33.042969 28.046875 33 27.921875 32.964844 27.855469 C 32.886719 27.710938 32.875 27.519531 32.941406 27.519531 C 32.964844 27.519531 33.164062 27.882812 33.382812 28.316406 Z M 17.230469 39.6875 C 18.265625 40.449219 19.324219 40.785156 20.988281 40.863281 C 21.367188 40.882812 21.683594 40.894531 21.695312 40.898438 C 21.753906 40.917969 21.394531 41.097656 21.210938 41.144531 C 19.824219 41.492188 18.445312 41.496094 17.125 41.148438 C 16.839844 41.074219 16.332031 40.808594 16.214844 40.667969 C 16.058594 40.488281 16.058594 40.265625 16.21875 40.078125 C 16.335938 39.941406 16.917969 39.566406 17.019531 39.566406 C 17.042969 39.566406 17.140625 39.621094 17.230469 39.6875 Z M 32.957031 39.691406 C 33.785156 40.140625 33.820312 40.585938 33.066406 40.960938 C 32.378906 41.292969 30.980469 41.480469 29.839844 41.378906 C 28.910156 41.296875 27.945312 41.039062 28.082031 40.90625 C 28.101562 40.886719 28.417969 40.859375 28.777344 40.847656 C 29.140625 40.839844 29.609375 40.804688 29.816406 40.773438 C 30.246094 40.714844 31.25 40.445312 31.25 40.394531 C 31.25 40.375 31.316406 40.34375 31.394531 40.332031 C 31.480469 40.3125 31.648438 40.238281 31.777344 40.164062 C 31.902344 40.089844 32.015625 40.027344 32.03125 40.027344 C 32.039062 40.027344 32.183594 39.9375 32.34375 39.820312 C 32.660156 39.589844 32.742188 39.574219 32.957031 39.691406 Z M 32.957031 39.691406 "/>
<path style=" stroke:none;fill-rule:nonzero;fill:rgb(0%,0%,0%);fill-opacity:1;" d="M 12.988281 10.816406 C 12.796875 10.851562 12.5 10.925781 12.332031 10.980469 C 12.039062 11.078125 11.347656 11.382812 11.296875 11.4375 C 11.28125 11.457031 11.148438 11.546875 11.003906 11.636719 C 10.242188 12.128906 9.421875 13.214844 9.113281 14.128906 C 8.910156 14.746094 8.875 14.976562 8.875 15.796875 C 8.878906 16.703125 8.933594 17.007812 9.210938 17.699219 C 9.789062 19.121094 10.875 20.125 12.402344 20.640625 C 12.96875 20.835938 13.972656 20.894531 14.652344 20.785156 C 14.886719 20.742188 15.125 20.675781 15.183594 20.640625 C 15.3125 20.554688 15.375 20.367188 15.410156 19.898438 C 15.425781 19.695312 15.460938 19.433594 15.484375 19.320312 C 15.507812 19.203125 15.574219 18.894531 15.628906 18.625 C 15.738281 18.085938 15.734375 18.097656 15.984375 17.304688 C 16.078125 17 16.175781 16.730469 16.195312 16.703125 C 16.21875 16.679688 16.238281 16.628906 16.238281 16.585938 C 16.238281 16.550781 16.265625 16.464844 16.296875 16.402344 C 16.332031 16.335938 16.410156 16.160156 16.472656 16.007812 C 16.765625 15.289062 17.273438 14.414062 17.824219 13.6875 C 18.171875 13.222656 18.160156 13.148438 17.71875 12.601562 C 17.121094 11.871094 16.503906 11.429688 15.507812 11.027344 C 14.886719 10.773438 13.789062 10.683594 12.988281 10.816406 Z M 14.425781 11.511719 C 15.242188 11.628906 15.804688 11.863281 16.519531 12.417969 C 16.8125 12.640625 17.226562 13.09375 17.226562 13.191406 C 17.226562 13.238281 17.136719 13.382812 17.03125 13.523438 C 16.925781 13.664062 16.792969 13.863281 16.734375 13.964844 C 16.679688 14.070312 16.570312 14.246094 16.5 14.359375 C 16.355469 14.578125 15.972656 15.308594 15.863281 15.570312 C 15.828125 15.660156 15.742188 15.855469 15.671875 16.007812 C 15.546875 16.292969 15.171875 17.414062 15.046875 17.90625 C 14.890625 18.507812 14.683594 19.589844 14.683594 19.816406 C 14.683594 20.03125 14.539062 20.105469 14.039062 20.140625 C 13.601562 20.167969 13.105469 20.097656 12.542969 19.921875 C 11.808594 19.699219 11.128906 19.242188 10.621094 18.628906 C 10.261719 18.195312 10.253906 18.183594 10 17.675781 C 9.703125 17.078125 9.589844 16.539062 9.597656 15.753906 C 9.601562 14.839844 9.769531 14.261719 10.289062 13.378906 C 10.320312 13.328125 10.457031 13.152344 10.59375 12.984375 C 11.261719 12.195312 12.183594 11.671875 13.203125 11.511719 C 13.699219 11.433594 13.863281 11.433594 14.425781 11.511719 Z M 14.425781 11.511719 "/>
<path style=" stroke:none;fill-rule:nonzero;fill:rgb(0%,0%,0%);fill-opacity:1;" d="M 35.015625 10.8125 C 34.40625 10.910156 33.703125 11.1875 33.09375 11.570312 C 32.765625 11.773438 32.035156 12.484375 31.800781 12.832031 C 31.574219 13.164062 31.570312 13.34375 31.777344 13.625 C 31.863281 13.738281 31.957031 13.851562 31.984375 13.886719 C 32.011719 13.914062 32.105469 14.046875 32.195312 14.1875 C 32.28125 14.320312 32.378906 14.460938 32.414062 14.492188 C 32.445312 14.523438 32.472656 14.574219 32.472656 14.597656 C 32.472656 14.621094 32.558594 14.777344 32.667969 14.945312 C 32.769531 15.117188 32.875 15.304688 32.898438 15.355469 C 32.949219 15.484375 33.3125 16.261719 33.367188 16.363281 C 33.394531 16.410156 33.414062 16.46875 33.414062 16.5 C 33.414062 16.527344 33.449219 16.613281 33.484375 16.691406 C 33.574219 16.882812 33.84375 17.675781 33.890625 17.882812 C 33.910156 17.972656 33.980469 18.285156 34.046875 18.578125 C 34.113281 18.871094 34.1875 19.203125 34.214844 19.320312 C 34.238281 19.433594 34.28125 19.730469 34.304688 19.976562 C 34.351562 20.453125 34.398438 20.585938 34.542969 20.664062 C 34.75 20.769531 35.484375 20.859375 36.042969 20.835938 C 36.789062 20.808594 37.171875 20.71875 37.78125 20.449219 C 37.917969 20.390625 38.046875 20.339844 38.066406 20.339844 C 38.191406 20.339844 39.042969 19.71875 39.375 19.382812 C 40.046875 18.703125 40.496094 17.894531 40.738281 16.933594 C 40.855469 16.464844 40.855469 15.113281 40.738281 14.664062 C 40.554688 13.953125 40.367188 13.527344 39.980469 12.941406 C 39.703125 12.523438 39.054688 11.859375 38.699219 11.632812 C 38.578125 11.554688 38.457031 11.476562 38.425781 11.457031 C 38.296875 11.355469 37.773438 11.113281 37.4375 11.003906 C 36.714844 10.757812 35.808594 10.6875 35.015625 10.8125 Z M 36.394531 11.496094 C 36.582031 11.519531 36.851562 11.574219 36.992188 11.609375 C 37.402344 11.71875 38.195312 12.136719 38.535156 12.425781 C 38.828125 12.667969 39.285156 13.167969 39.410156 13.378906 C 39.9375 14.269531 40.101562 14.835938 40.101562 15.773438 C 40.105469 16.605469 39.972656 17.179688 39.628906 17.828125 C 39.429688 18.199219 39.40625 18.230469 39.078125 18.628906 C 38.566406 19.242188 37.890625 19.699219 37.15625 19.921875 C 36.589844 20.097656 36.097656 20.167969 35.660156 20.140625 C 35.160156 20.105469 35.015625 20.03125 35.015625 19.820312 C 35.015625 19.582031 34.78125 18.402344 34.609375 17.789062 C 34.46875 17.273438 34.140625 16.304688 34.003906 15.996094 C 33.792969 15.53125 33.292969 14.550781 33.179688 14.386719 C 33.109375 14.285156 33.042969 14.167969 33.027344 14.128906 C 33.011719 14.09375 32.882812 13.894531 32.738281 13.691406 C 32.589844 13.488281 32.472656 13.273438 32.472656 13.21875 C 32.472656 13.097656 32.851562 12.667969 33.175781 12.417969 C 33.863281 11.886719 34.480469 11.621094 35.25 11.511719 C 35.777344 11.4375 35.988281 11.433594 36.394531 11.496094 Z M 36.394531 11.496094 "/>
<path style=" stroke:none;fill-rule:nonzero;fill:rgb(0%,0%,0%);fill-opacity:1;" d="M 20.144531 18.574219 C 19.78125 18.628906 19.339844 18.917969 19.144531 19.230469 C 19.019531 19.425781 18.90625 19.898438 18.933594 20.117188 C 19 20.671875 19.191406 21.007812 19.621094 21.285156 C 20.101562 21.597656 20.605469 21.625 21.136719 21.359375 C 21.59375 21.132812 21.84375 20.789062 21.921875 20.277344 C 22.027344 19.640625 21.804688 19.132812 21.273438 18.78125 C 20.933594 18.558594 20.628906 18.503906 20.144531 18.574219 Z M 21.089844 19.171875 C 21.296875 19.34375 21.164062 19.738281 20.902344 19.738281 C 20.734375 19.738281 20.613281 19.601562 20.613281 19.417969 C 20.613281 19.132812 20.871094 19 21.089844 19.171875 Z M 21.089844 19.171875 "/>
<path style=" stroke:none;fill-rule:nonzero;fill:rgb(0%,0%,0%);fill-opacity:1;" d="M 28.875 18.582031 C 28.566406 18.644531 28.195312 18.921875 27.964844 19.257812 C 27.789062 19.519531 27.789062 19.523438 27.789062 20.011719 C 27.789062 20.429688 27.804688 20.527344 27.898438 20.695312 C 28.0625 21.007812 28.28125 21.214844 28.585938 21.367188 C 29.210938 21.679688 29.867188 21.558594 30.402344 21.035156 C 30.605469 20.828125 30.78125 20.375 30.78125 20.039062 C 30.78125 19.804688 30.667969 19.414062 30.546875 19.226562 C 30.21875 18.707031 29.542969 18.449219 28.875 18.582031 Z M 29.992188 19.234375 C 30.105469 19.367188 30.09375 19.492188 29.957031 19.621094 C 29.777344 19.800781 29.554688 19.753906 29.472656 19.515625 C 29.351562 19.179688 29.753906 18.96875 29.992188 19.234375 Z M 29.992188 19.234375 "/>
<path style=" stroke:none;fill-rule:nonzero;fill:rgb(0%,0%,0%);fill-opacity:1;" d="M 24.402344 18.761719 C 23.488281 18.949219 22.761719 19.65625 22.40625 20.695312 C 22.265625 21.109375 22.261719 22.234375 22.402344 22.632812 C 22.589844 23.175781 23.070312 23.605469 23.636719 23.75 C 24.640625 24.007812 26.0625 23.898438 26.679688 23.511719 C 27.039062 23.292969 27.304688 22.902344 27.398438 22.46875 C 27.589844 21.59375 27.480469 20.738281 27.097656 20.097656 C 27.023438 19.976562 26.96875 19.863281 26.96875 19.839844 C 26.96875 19.769531 26.238281 19.101562 26.0625 19.015625 C 25.617188 18.777344 24.867188 18.667969 24.402344 18.761719 Z M 24.402344 18.761719 "/>
<path style=" stroke:none;fill-rule:nonzero;fill:rgb(0%,0%,0%);fill-opacity:1;" d="M 22.722656 24.164062 C 22.613281 24.222656 22.589844 24.261719 22.589844 24.414062 C 22.589844 24.746094 23.007812 25.09375 23.59375 25.25 C 23.875 25.324219 24.210938 25.265625 24.589844 25.058594 L 24.847656 24.925781 L 25.109375 25.058594 C 25.527344 25.277344 25.820312 25.324219 26.171875 25.226562 C 26.785156 25.058594 27.152344 24.703125 27.117188 24.3125 C 27.109375 24.230469 26.898438 24.101562 26.792969 24.121094 C 26.761719 24.125 26.714844 24.128906 26.695312 24.132812 C 26.671875 24.132812 26.582031 24.203125 26.492188 24.28125 C 26.28125 24.46875 26.015625 24.601562 25.851562 24.601562 C 25.726562 24.601562 25.554688 24.511719 25.066406 24.214844 L 24.847656 24.082031 L 24.640625 24.203125 C 24.523438 24.273438 24.417969 24.347656 24.398438 24.375 C 24.355469 24.445312 23.96875 24.601562 23.847656 24.601562 C 23.707031 24.597656 23.390625 24.449219 23.246094 24.308594 C 23.121094 24.195312 22.953125 24.089844 22.886719 24.089844 C 22.867188 24.097656 22.792969 24.128906 22.722656 24.164062 Z M 22.722656 24.164062 "/>
<path style=" stroke:none;fill-rule:nonzero;fill:rgb(0%,0%,0%);fill-opacity:1;" d="M 38.964844 39.089844 C 38.050781 40.027344 37.046875 41.042969 36.746094 41.347656 L 36.191406 41.90625 L 36.375 42.082031 L 36.554688 42.261719 L 37.285156 41.527344 C 37.683594 41.121094 38.09375 40.707031 38.191406 40.59375 C 38.285156 40.488281 38.390625 40.398438 38.421875 40.398438 C 38.480469 40.40625 38.722656 40.625 40.238281 42.066406 C 40.785156 42.589844 41.25 43.023438 41.269531 43.03125 C 41.285156 43.035156 41.460938 42.878906 41.664062 42.679688 L 42.03125 42.316406 L 40.886719 41.230469 C 40.257812 40.632812 39.621094 40.035156 39.472656 39.894531 C 39.324219 39.753906 39.203125 39.621094 39.203125 39.597656 C 39.203125 39.570312 39.460938 39.289062 39.78125 38.96875 C 40.101562 38.648438 40.515625 38.226562 40.699219 38.035156 L 41.035156 37.6875 L 40.886719 37.535156 C 40.804688 37.457031 40.714844 37.386719 40.6875 37.386719 C 40.652344 37.386719 39.882812 38.152344 38.964844 39.089844 Z M 38.964844 39.089844 "/>
<path style=" stroke:none;fill-rule:nonzero;fill:rgb(0%,0%,0%);fill-opacity:1;" d="M 8.964844 38.304688 C 8.601562 38.652344 7.882812 39.34375 7.367188 39.835938 L 6.429688 40.722656 L 6.617188 40.917969 C 6.96875 41.289062 8.265625 42.601562 8.753906 43.085938 C 9.488281 43.808594 9.988281 44.171875 10.492188 44.335938 C 11.238281 44.582031 11.859375 44.253906 11.859375 43.609375 C 11.859375 43.382812 11.691406 42.910156 11.507812 42.625 C 11.441406 42.515625 11.390625 42.417969 11.398438 42.414062 C 11.40625 42.40625 11.53125 42.453125 11.671875 42.515625 C 11.972656 42.660156 12.449219 42.710938 12.660156 42.625 C 12.894531 42.527344 13.011719 42.285156 13.011719 41.90625 C 13.007812 41.632812 12.984375 41.53125 12.839844 41.234375 C 12.746094 41.042969 12.554688 40.742188 12.421875 40.566406 C 12.21875 40.300781 9.925781 37.917969 9.691406 37.726562 C 9.636719 37.683594 9.503906 37.792969 8.964844 38.304688 Z M 10.691406 39.460938 C 11.910156 40.675781 12.1875 41.046875 12.1875 41.464844 C 12.1875 41.855469 11.796875 42.039062 11.359375 41.859375 C 11.117188 41.761719 10.675781 41.394531 10.21875 40.921875 C 9.996094 40.699219 9.636719 40.335938 9.417969 40.113281 L 9.023438 39.710938 L 9.511719 39.246094 C 9.78125 38.992188 10 38.78125 10.003906 38.777344 C 10.003906 38.777344 10.316406 39.082031 10.691406 39.460938 Z M 8.898438 40.292969 C 9.007812 40.417969 9.390625 40.808594 9.738281 41.164062 C 10.746094 42.183594 11.007812 42.574219 11.011719 43.007812 C 11.011719 43.207031 10.992188 43.253906 10.847656 43.398438 C 10.683594 43.558594 10.667969 43.5625 10.402344 43.535156 C 9.957031 43.5 9.703125 43.308594 8.578125 42.191406 C 8.027344 41.652344 7.578125 41.179688 7.578125 41.148438 C 7.578125 41.09375 8.609375 40.078125 8.664062 40.074219 C 8.683594 40.074219 8.785156 40.171875 8.898438 40.292969 Z M 8.898438 40.292969 "/>
<path style=" stroke:none;fill-rule:nonzero;fill:rgb(0%,0%,0%);fill-opacity:1;" d="M 34.816406 42.785156 C 34.582031 42.910156 34.445312 43.066406 34.367188 43.320312 C 34.222656 43.753906 34.136719 45.628906 34.207031 46.652344 C 34.253906 47.257812 34.265625 47.332031 34.355469 47.40625 C 34.558594 47.566406 34.992188 47.457031 35.273438 47.164062 L 35.40625 47.03125 L 35.300781 46.796875 C 35.148438 46.445312 35.164062 46.277344 35.386719 46.085938 C 35.59375 45.902344 36.042969 45.628906 36.644531 45.324219 L 36.882812 45.203125 L 37.105469 45.351562 C 37.414062 45.566406 37.613281 45.636719 37.886719 45.636719 C 38.175781 45.636719 38.378906 45.554688 38.582031 45.355469 C 38.804688 45.132812 38.769531 45.050781 38.402344 44.90625 C 38.234375 44.839844 38.050781 44.753906 37.988281 44.71875 L 37.882812 44.648438 L 38.023438 44.554688 C 38.265625 44.40625 38.261719 44.15625 38.019531 44.078125 C 37.96875 44.0625 37.777344 44.097656 37.597656 44.15625 C 37.273438 44.261719 37.273438 44.261719 37.171875 44.171875 C 37.109375 44.121094 36.789062 43.835938 36.449219 43.546875 C 35.417969 42.652344 35.441406 42.667969 35.230469 42.667969 C 35.125 42.675781 34.941406 42.726562 34.816406 42.785156 Z M 36.230469 44.765625 C 36.277344 44.824219 36.210938 44.882812 35.75 45.167969 C 35.453125 45.347656 35.195312 45.496094 35.175781 45.496094 C 35.136719 45.496094 35.195312 44.109375 35.230469 44.050781 C 35.253906 44.011719 36.113281 44.628906 36.230469 44.765625 Z M 36.230469 44.765625 "/>
<path style=" stroke:none;fill-rule:nonzero;fill:rgb(0%,0%,0%);fill-opacity:1;" d="M 15.058594 43.199219 C 14.390625 43.464844 13.34375 44.042969 12.414062 44.644531 C 11.667969 45.128906 11.605469 45.222656 11.839844 45.527344 C 11.988281 45.71875 12.273438 45.867188 12.480469 45.863281 C 12.609375 45.863281 12.664062 45.824219 12.777344 45.667969 C 12.859375 45.5625 12.976562 45.445312 13.046875 45.40625 C 13.160156 45.34375 13.195312 45.347656 13.421875 45.417969 C 13.605469 45.472656 14.773438 46.066406 14.910156 46.171875 C 14.917969 46.175781 14.929688 46.375 14.9375 46.617188 C 14.941406 46.996094 14.960938 47.082031 15.074219 47.265625 C 15.257812 47.582031 15.609375 47.789062 15.886719 47.757812 C 16.039062 47.742188 16.039062 47.761719 15.972656 47.125 C 15.953125 46.898438 15.960938 46.792969 15.992188 46.792969 C 16.019531 46.792969 16.054688 46.8125 16.066406 46.835938 C 16.113281 46.910156 16.328125 46.917969 16.425781 46.851562 C 16.582031 46.746094 16.542969 46.582031 16.300781 46.351562 C 16.183594 46.238281 16.066406 46.144531 16.042969 46.144531 C 15.972656 46.144531 15.996094 45.949219 16.191406 44.890625 C 16.292969 44.324219 16.378906 43.800781 16.378906 43.71875 C 16.378906 43.425781 15.902344 43.085938 15.507812 43.089844 C 15.402344 43.089844 15.203125 43.140625 15.058594 43.199219 Z M 15.136719 44.371094 C 15.121094 44.445312 15.089844 44.71875 15.058594 44.988281 C 15.027344 45.25 15 45.480469 14.988281 45.5 C 14.972656 45.523438 13.90625 45.019531 13.835938 44.953125 C 13.824219 44.941406 13.863281 44.894531 13.925781 44.851562 C 14.117188 44.71875 15.035156 44.246094 15.097656 44.246094 C 15.140625 44.246094 15.15625 44.28125 15.136719 44.371094 Z M 15.136719 44.371094 "/>
<path style=" stroke:none;fill-rule:nonzero;fill:rgb(0%,0%,0%);fill-opacity:1;" d="M 32.414062 44.203125 C 32.3125 44.226562 32.167969 44.277344 32.085938 44.320312 C 31.847656 44.441406 31.105469 45.214844 30.566406 45.898438 C 30.289062 46.25 30.046875 46.546875 30.023438 46.550781 C 29.945312 46.582031 29.335938 46.0625 28.945312 45.640625 L 28.570312 45.246094 L 28.238281 45.226562 C 27.765625 45.199219 27.519531 45.277344 27.304688 45.519531 L 27.132812 45.714844 L 27.015625 45.628906 C 26.839844 45.503906 26.429688 45.441406 26.199219 45.5 C 25.996094 45.550781 25.582031 45.847656 25.339844 46.109375 C 25.257812 46.191406 25.039062 46.460938 24.847656 46.699219 C 24.660156 46.941406 24.492188 47.160156 24.472656 47.179688 C 24.453125 47.199219 24.316406 46.992188 24.171875 46.722656 C 23.832031 46.089844 23.683594 45.875 23.410156 45.640625 C 23.117188 45.386719 22.785156 45.289062 22.46875 45.355469 C 22.238281 45.40625 22.074219 45.515625 22.074219 45.605469 C 22.074219 45.636719 22.195312 45.792969 22.339844 45.960938 C 22.75 46.421875 23.445312 47.523438 23.648438 48.03125 L 23.730469 48.226562 L 23.511719 48.519531 C 23.253906 48.878906 23.140625 49.128906 23.183594 49.257812 C 23.226562 49.398438 23.558594 49.527344 23.890625 49.527344 C 24.148438 49.527344 24.1875 49.511719 24.324219 49.375 C 24.402344 49.296875 24.542969 49.066406 24.632812 48.878906 C 24.8125 48.503906 25.3125 47.757812 25.796875 47.15625 C 26.0625 46.820312 27.0625 45.804688 27.09375 45.839844 C 27.097656 45.84375 27.085938 45.976562 27.058594 46.136719 C 26.996094 46.476562 27.039062 46.832031 27.277344 47.917969 C 27.457031 48.742188 27.570312 49.039062 27.773438 49.230469 C 27.894531 49.347656 27.949219 49.363281 28.179688 49.359375 C 28.488281 49.359375 28.945312 49.164062 28.945312 49.03125 C 28.945312 48.988281 28.851562 48.757812 28.738281 48.511719 C 28.519531 48.035156 28.402344 47.558594 28.351562 46.925781 L 28.324219 46.539062 L 28.742188 46.945312 C 29.328125 47.519531 29.679688 47.71875 30.097656 47.71875 C 30.402344 47.71875 30.574219 47.640625 30.636719 47.472656 C 30.761719 47.148438 30.882812 46.914062 31.0625 46.675781 C 31.3125 46.347656 31.816406 45.753906 31.863281 45.738281 C 31.878906 45.726562 31.921875 45.910156 31.957031 46.128906 C 32.074219 46.988281 32.242188 47.863281 32.3125 48.011719 C 32.355469 48.09375 32.429688 48.191406 32.488281 48.230469 C 32.761719 48.394531 33.648438 48.164062 33.648438 47.929688 C 33.648438 47.894531 33.589844 47.738281 33.507812 47.578125 C 33.246094 47.015625 33.058594 45.785156 33.097656 44.867188 C 33.125 44.308594 33.117188 44.300781 33.015625 44.253906 C 32.839844 44.175781 32.605469 44.15625 32.414062 44.203125 Z M 32.414062 44.203125 "/>
<path style=" stroke:none;fill-rule:nonzero;fill:rgb(0%,0%,0%);fill-opacity:1;" d="M 17.851562 44.417969 C 17.585938 44.46875 17.59375 44.757812 17.859375 44.851562 C 18.054688 44.921875 18.058594 44.949219 17.929688 45.125 C 17.878906 45.199219 17.761719 45.417969 17.667969 45.605469 C 17.527344 45.898438 17.480469 45.960938 17.386719 45.960938 C 17.230469 45.960938 17.167969 46.097656 17.253906 46.253906 C 17.316406 46.375 17.308594 46.410156 17.195312 46.671875 C 16.867188 47.433594 16.839844 47.605469 16.988281 47.847656 C 17.285156 48.328125 18.925781 48.832031 20.171875 48.832031 C 20.730469 48.832031 21.066406 48.75 21.296875 48.550781 C 21.753906 48.15625 21.550781 47.617188 20.757812 47.140625 L 20.453125 46.957031 L 21.042969 46.925781 C 21.660156 46.898438 21.890625 46.835938 22.066406 46.648438 C 22.25 46.453125 22.175781 46.175781 21.859375 45.898438 C 21.429688 45.515625 20.28125 44.964844 19.28125 44.660156 C 18.503906 44.425781 18.132812 44.359375 17.851562 44.417969 Z M 19.558594 45.339844 C 20.035156 45.496094 20.839844 45.871094 20.980469 46 C 21.246094 46.253906 21.027344 46.386719 20.339844 46.386719 C 19.644531 46.382812 18.683594 46.234375 18.683594 46.128906 C 18.683594 46.046875 19.113281 45.21875 19.15625 45.21875 C 19.171875 45.21875 19.355469 45.273438 19.558594 45.339844 Z M 18.941406 46.894531 C 19.378906 47.015625 20.109375 47.367188 20.308594 47.558594 C 20.628906 47.855469 20.476562 48.144531 19.96875 48.210938 C 19.5 48.265625 18.335938 48.03125 18.109375 47.828125 C 18 47.730469 18 47.730469 18.171875 47.3125 C 18.25 47.113281 18.335938 46.910156 18.355469 46.851562 C 18.402344 46.742188 18.398438 46.742188 18.941406 46.894531 Z M 18.941406 46.894531 "/>
</g>
</svg>
