<?xml version="1.0" encoding="UTF-8"?>
<svg xmlns="http://www.w3.org/2000/svg" xmlns:xlink="http://www.w3.org/1999/xlink" width="39pt" height="40pt" viewBox="0 0 39 40" version="1.1">
<g id="surface1">
<path style=" stroke:none;fill-rule:nonzero;fill:rgb(0%,0%,0%);fill-opacity:1;" d="M 18.523438 5.640625 C 18.429688 5.773438 18.453125 5.871094 18.640625 6.078125 C 18.8125 6.277344 18.90625 6.515625 18.90625 6.769531 C 18.90625 6.894531 18.859375 6.894531 18.519531 6.773438 C 18.378906 6.726562 18.074219 6.648438 17.84375 6.609375 C 17.460938 6.542969 17.421875 6.539062 17.335938 6.59375 C 17.113281 6.742188 17.152344 6.914062 17.441406 7.097656 C 17.636719 7.21875 17.71875 7.324219 17.746094 7.488281 C 17.773438 7.652344 17.742188 7.695312 17.542969 7.734375 C 16.960938 7.863281 16.484375 8.035156 15.84375 8.359375 L 15.351562 8.605469 L 15.273438 8.523438 C 15.230469 8.480469 15.199219 8.433594 15.199219 8.417969 C 15.199219 8.398438 14.855469 7.914062 14.675781 7.683594 C 14.410156 7.34375 13.671875 6.699219 13.34375 6.519531 C 13.203125 6.441406 12.71875 6.203125 12.609375 6.160156 C 12.550781 6.132812 12.4375 6.085938 12.359375 6.054688 C 12.28125 6.019531 12.195312 5.996094 12.15625 5.996094 C 12.125 5.996094 12.03125 5.96875 11.949219 5.941406 C 11.738281 5.867188 10.921875 5.867188 10.746094 5.941406 C 10.671875 5.96875 10.546875 5.996094 10.464844 5.996094 C 10.386719 5.996094 10.273438 6.015625 10.214844 6.035156 C 10.160156 6.058594 10.03125 6.089844 9.929688 6.109375 C 9.726562 6.144531 9.703125 6.15625 9.378906 6.308594 C 9.179688 6.402344 9.160156 6.425781 9.148438 6.535156 C 9.140625 6.601562 9.160156 6.683594 9.183594 6.714844 C 9.292969 6.847656 9.367188 7.019531 9.335938 7.054688 C 9.316406 7.070312 9.203125 7.117188 9.082031 7.160156 C 8.964844 7.203125 8.824219 7.253906 8.773438 7.273438 C 8.722656 7.296875 8.625 7.335938 8.5625 7.367188 C 8.308594 7.472656 8.160156 7.546875 7.890625 7.699219 C 7.648438 7.839844 7.320312 8.050781 7.269531 8.101562 C 7.257812 8.113281 7.175781 8.179688 7.085938 8.253906 C 6.851562 8.441406 6.578125 8.710938 6.386719 8.9375 C 6.296875 9.046875 6.214844 9.144531 6.199219 9.15625 C 6.101562 9.242188 5.628906 10.136719 5.550781 10.390625 C 5.367188 10.988281 5.324219 11.277344 5.300781 11.953125 C 5.28125 12.46875 5.289062 12.636719 5.335938 12.839844 C 5.371094 12.976562 5.394531 13.164062 5.394531 13.261719 C 5.394531 13.359375 5.414062 13.484375 5.4375 13.542969 C 5.457031 13.597656 5.492188 13.734375 5.507812 13.84375 C 5.519531 13.953125 5.554688 14.101562 5.578125 14.171875 C 5.605469 14.242188 5.640625 14.347656 5.664062 14.402344 C 5.757812 14.667969 5.9375 14.746094 6.160156 14.617188 C 6.25 14.566406 6.277344 14.5625 6.328125 14.605469 C 6.363281 14.628906 6.386719 14.671875 6.386719 14.699219 C 6.386719 14.71875 6.441406 14.867188 6.507812 15.015625 C 6.917969 15.941406 7.597656 16.628906 8.589844 17.101562 C 8.996094 17.292969 8.992188 17.292969 9.214844 17.351562 C 9.796875 17.507812 10.140625 17.550781 10.75 17.550781 C 11.085938 17.550781 11.378906 17.566406 11.398438 17.578125 C 11.421875 17.59375 11.464844 17.703125 11.5 17.824219 C 11.539062 17.941406 11.585938 18.089844 11.609375 18.152344 C 11.625 18.207031 11.65625 18.308594 11.671875 18.367188 C 11.734375 18.601562 11.855469 18.820312 12.125 19.167969 C 12.453125 19.597656 12.648438 19.808594 12.914062 20.003906 C 13.089844 20.132812 13.105469 20.15625 13.105469 20.296875 C 13.105469 20.386719 13.085938 20.464844 13.066406 20.476562 C 13.046875 20.492188 13.011719 20.539062 12.992188 20.578125 C 12.972656 20.621094 12.925781 20.703125 12.886719 20.765625 C 12.84375 20.824219 12.796875 20.910156 12.773438 20.949219 C 12.753906 20.988281 12.6875 21.101562 12.628906 21.203125 C 12.492188 21.425781 12.125 22.171875 11.945312 22.582031 C 11.917969 22.640625 11.851562 22.796875 11.789062 22.929688 C 11.726562 23.058594 11.671875 23.195312 11.671875 23.222656 C 11.671875 23.253906 11.648438 23.304688 11.617188 23.328125 C 11.589844 23.355469 11.5625 23.410156 11.5625 23.457031 C 11.5625 23.503906 11.550781 23.546875 11.539062 23.554688 C 11.484375 23.574219 11.242188 24.25 11.0625 24.855469 C 11.03125 24.964844 10.984375 25.128906 10.953125 25.21875 C 10.925781 25.308594 10.902344 25.4375 10.902344 25.503906 C 10.902344 25.574219 10.878906 25.730469 10.847656 25.855469 C 10.761719 26.1875 10.785156 27.785156 10.878906 28.015625 C 11 28.308594 11.121094 28.535156 11.257812 28.683594 C 11.507812 28.972656 11.546875 29.015625 11.664062 29.160156 C 11.75 29.277344 11.824219 29.320312 12.003906 29.375 C 12.238281 29.453125 12.445312 29.632812 12.445312 29.765625 C 12.445312 29.800781 12.460938 29.839844 12.484375 29.851562 C 12.503906 29.867188 12.539062 29.914062 12.558594 29.953125 C 12.578125 29.996094 12.625 30.078125 12.664062 30.140625 C 12.707031 30.199219 12.75 30.277344 12.761719 30.304688 C 12.773438 30.335938 12.8125 30.390625 12.835938 30.421875 C 12.925781 30.523438 12.882812 30.585938 12.574219 30.785156 C 12.25 31 12.011719 31.261719 11.933594 31.492188 C 11.84375 31.773438 11.996094 32.1875 12.285156 32.425781 C 12.503906 32.605469 13.089844 32.839844 13.710938 32.996094 C 13.824219 33.023438 14.257812 33.046875 14.859375 33.058594 C 15.859375 33.074219 16.066406 33.054688 16.558594 32.902344 C 16.65625 32.875 16.75 32.847656 16.773438 32.847656 C 16.792969 32.847656 16.933594 32.789062 17.085938 32.722656 C 17.234375 32.652344 17.371094 32.59375 17.386719 32.59375 C 17.398438 32.59375 17.46875 32.539062 17.546875 32.472656 C 17.621094 32.414062 17.710938 32.332031 17.753906 32.304688 C 17.789062 32.269531 17.875 32.183594 17.9375 32.109375 L 18.054688 31.96875 L 18.558594 31.996094 C 19.203125 32.023438 19.5625 32.023438 20.199219 31.996094 L 20.699219 31.96875 L 20.933594 32.203125 C 21.214844 32.484375 21.332031 32.578125 21.4375 32.613281 C 21.480469 32.628906 21.613281 32.683594 21.730469 32.742188 C 21.851562 32.800781 21.96875 32.847656 21.992188 32.847656 C 22.015625 32.847656 22.109375 32.875 22.207031 32.902344 C 22.660156 33.042969 22.886719 33.066406 23.773438 33.0625 C 24.257812 33.0625 24.722656 33.046875 24.816406 33.035156 C 25.507812 32.90625 26.058594 32.730469 26.339844 32.539062 C 26.511719 32.425781 26.710938 32.214844 26.75 32.09375 C 26.890625 31.707031 26.894531 31.675781 26.8125 31.433594 C 26.769531 31.296875 26.699219 31.203125 26.523438 31.042969 C 26.246094 30.789062 26.183594 30.742188 26.148438 30.742188 C 26.128906 30.742188 26.070312 30.699219 26.015625 30.648438 L 25.914062 30.550781 L 26.011719 30.386719 C 26.066406 30.289062 26.128906 30.1875 26.152344 30.160156 C 26.199219 30.101562 26.277344 29.941406 26.375 29.699219 C 26.429688 29.566406 26.46875 29.539062 26.605469 29.488281 C 26.699219 29.457031 26.804688 29.433594 26.84375 29.433594 C 26.980469 29.433594 27.449219 29.023438 27.542969 28.816406 C 27.558594 28.785156 27.601562 28.710938 27.640625 28.652344 C 27.683594 28.589844 27.722656 28.515625 27.738281 28.488281 C 27.75 28.460938 27.78125 28.390625 27.8125 28.335938 C 27.839844 28.285156 27.863281 28.207031 27.863281 28.167969 C 27.863281 28.128906 27.882812 28.042969 27.914062 27.976562 C 28.066406 27.59375 28.0625 26.441406 27.898438 25.597656 C 27.839844 25.300781 27.632812 24.558594 27.566406 24.417969 C 27.554688 24.390625 27.511719 24.265625 27.472656 24.144531 C 27.4375 24.027344 27.375 23.855469 27.335938 23.765625 C 27.300781 23.671875 27.253906 23.5625 27.230469 23.511719 C 27.210938 23.460938 27.171875 23.371094 27.144531 23.316406 C 27.113281 23.257812 27.089844 23.191406 27.089844 23.164062 C 27.089844 23.140625 27.066406 23.070312 27.035156 23.011719 C 26.984375 22.914062 26.601562 22.113281 26.539062 21.964844 C 26.519531 21.925781 26.488281 21.867188 26.472656 21.839844 C 26.453125 21.808594 26.425781 21.757812 26.414062 21.730469 C 26.402344 21.699219 26.335938 21.578125 26.265625 21.457031 C 26.199219 21.335938 26.105469 21.167969 26.058594 21.074219 C 26.015625 20.984375 25.941406 20.855469 25.898438 20.785156 C 25.769531 20.582031 25.585938 20.234375 25.585938 20.207031 C 25.585938 20.191406 25.648438 20.148438 25.726562 20.109375 C 25.917969 20.015625 26.585938 19.339844 26.695312 19.125 C 26.746094 19.03125 26.824219 18.890625 26.863281 18.824219 C 26.902344 18.753906 26.972656 18.621094 27.019531 18.53125 C 27.0625 18.441406 27.121094 18.324219 27.148438 18.269531 C 27.179688 18.21875 27.203125 18.128906 27.203125 18.074219 C 27.203125 18.019531 27.226562 17.878906 27.261719 17.761719 L 27.324219 17.550781 L 27.949219 17.550781 C 28.296875 17.550781 28.636719 17.53125 28.707031 17.515625 C 28.777344 17.492188 28.964844 17.460938 29.125 17.441406 C 29.28125 17.421875 29.480469 17.375 29.566406 17.335938 C 29.644531 17.300781 29.757812 17.257812 29.808594 17.242188 C 29.933594 17.210938 30.429688 16.96875 30.453125 16.929688 C 30.464844 16.910156 30.496094 16.898438 30.523438 16.898438 C 30.699219 16.898438 31.71875 16.035156 31.71875 15.886719 C 31.71875 15.863281 31.730469 15.84375 31.746094 15.84375 C 31.765625 15.84375 31.796875 15.808594 31.824219 15.757812 C 31.84375 15.714844 31.898438 15.628906 31.9375 15.570312 C 31.976562 15.507812 32.023438 15.429688 32.046875 15.390625 C 32.066406 15.347656 32.097656 15.289062 32.117188 15.261719 C 32.203125 15.128906 32.378906 14.726562 32.378906 14.675781 C 32.378906 14.617188 32.488281 14.5 32.539062 14.5 C 32.554688 14.5 32.589844 14.523438 32.625 14.554688 C 32.660156 14.59375 32.734375 14.609375 32.84375 14.601562 L 33.007812 14.589844 L 33.074219 14.371094 C 33.179688 14.03125 33.226562 13.84375 33.257812 13.625 C 33.273438 13.515625 33.304688 13.378906 33.328125 13.324219 C 33.351562 13.265625 33.367188 13.152344 33.367188 13.070312 C 33.367188 12.988281 33.394531 12.777344 33.425781 12.601562 C 33.476562 12.316406 33.476562 12.25 33.425781 11.964844 C 33.394531 11.789062 33.367188 11.480469 33.367188 11.273438 C 33.367188 11.019531 33.351562 10.855469 33.3125 10.765625 C 33.285156 10.699219 33.257812 10.605469 33.257812 10.574219 C 33.257812 10.539062 33.238281 10.460938 33.207031 10.402344 C 33.179688 10.347656 33.101562 10.171875 33.03125 10.011719 C 32.886719 9.664062 32.832031 9.558594 32.691406 9.339844 C 32.4375 8.949219 31.828125 8.324219 31.429688 8.050781 C 31.125 7.839844 30.582031 7.523438 30.53125 7.523438 C 30.503906 7.523438 30.464844 7.503906 30.441406 7.480469 C 30.421875 7.460938 30.347656 7.429688 30.28125 7.414062 C 30.109375 7.371094 29.917969 7.304688 29.796875 7.246094 C 29.738281 7.214844 29.660156 7.195312 29.628906 7.195312 C 29.589844 7.195312 29.519531 7.160156 29.464844 7.121094 C 29.355469 7.035156 29.363281 7.003906 29.523438 6.761719 C 29.660156 6.554688 29.644531 6.476562 29.441406 6.371094 C 29.347656 6.324219 29.261719 6.269531 29.242188 6.25 C 29.21875 6.226562 29.175781 6.214844 29.140625 6.214844 C 29.105469 6.214844 29.023438 6.191406 28.957031 6.164062 C 28.433594 5.945312 28.140625 5.886719 27.523438 5.886719 C 27.234375 5.886719 26.941406 5.90625 26.871094 5.925781 C 26.800781 5.945312 26.667969 5.976562 26.578125 5.996094 C 26.300781 6.046875 25.878906 6.222656 25.496094 6.445312 C 24.820312 6.84375 24.027344 7.648438 23.558594 8.414062 C 23.492188 8.519531 23.417969 8.613281 23.386719 8.613281 C 23.359375 8.613281 23.257812 8.566406 23.167969 8.511719 C 23.074219 8.457031 22.882812 8.359375 22.742188 8.292969 C 22.601562 8.222656 22.457031 8.152344 22.421875 8.136719 C 22.3125 8.082031 21.800781 7.902344 21.417969 7.792969 C 21.0625 7.6875 21.035156 7.675781 21.035156 7.585938 C 21.035156 7.539062 21.007812 7.457031 20.980469 7.398438 C 20.949219 7.34375 20.925781 7.265625 20.925781 7.230469 C 20.925781 7.097656 20.648438 6.632812 20.433594 6.402344 C 20.109375 6.0625 19.773438 5.855469 19.257812 5.671875 C 18.859375 5.535156 18.605469 5.523438 18.523438 5.640625 Z M 19.980469 6.738281 C 20.097656 6.851562 20.226562 7.015625 20.265625 7.09375 C 20.382812 7.320312 20.484375 7.660156 20.484375 7.839844 C 20.484375 8.070312 20.609375 8.183594 20.925781 8.246094 C 21.191406 8.296875 21.621094 8.414062 21.785156 8.480469 C 21.847656 8.507812 21.957031 8.550781 22.027344 8.574219 C 22.3125 8.679688 22.828125 8.941406 22.9375 9.035156 C 22.960938 9.0625 23.003906 9.085938 23.019531 9.085938 C 23.039062 9.085938 23.125 9.132812 23.207031 9.191406 C 23.316406 9.273438 23.398438 9.300781 23.511719 9.300781 C 23.703125 9.300781 23.726562 9.28125 23.933594 8.875 C 23.980469 8.789062 24.039062 8.699219 24.058594 8.671875 C 24.085938 8.648438 24.148438 8.558594 24.203125 8.464844 C 24.253906 8.375 24.328125 8.269531 24.363281 8.230469 C 24.402344 8.191406 24.476562 8.097656 24.535156 8.03125 C 25.070312 7.378906 25.664062 6.941406 26.449219 6.609375 C 26.886719 6.429688 27.867188 6.390625 28.390625 6.535156 C 28.550781 6.582031 28.722656 6.640625 28.773438 6.664062 L 28.859375 6.710938 L 28.691406 6.902344 C 28.601562 7.003906 28.523438 7.117188 28.523438 7.160156 C 28.523438 7.371094 28.65625 7.480469 29.011719 7.558594 C 29.480469 7.65625 30.226562 7.957031 30.683594 8.238281 C 30.800781 8.308594 30.925781 8.378906 30.964844 8.40625 C 31.003906 8.429688 31.046875 8.457031 31.054688 8.464844 C 31.066406 8.476562 31.191406 8.578125 31.332031 8.691406 C 31.6875 8.976562 31.964844 9.273438 32.179688 9.59375 C 32.527344 10.121094 32.714844 10.566406 32.863281 11.246094 C 32.925781 11.535156 32.925781 12.652344 32.863281 13.007812 C 32.816406 13.253906 32.800781 13.359375 32.71875 13.746094 C 32.691406 13.878906 32.617188 13.90625 32.488281 13.828125 C 32.253906 13.695312 32.042969 13.78125 31.976562 14.050781 C 31.726562 15.050781 31.238281 15.8125 30.558594 16.261719 C 30.460938 16.328125 30.34375 16.414062 30.300781 16.453125 C 30.257812 16.492188 30.167969 16.535156 30.101562 16.550781 C 30.03125 16.566406 29.953125 16.601562 29.925781 16.628906 C 29.898438 16.65625 29.84375 16.679688 29.804688 16.679688 C 29.765625 16.679688 29.722656 16.703125 29.710938 16.734375 C 29.699219 16.769531 29.640625 16.789062 29.527344 16.789062 C 29.441406 16.789062 29.367188 16.800781 29.367188 16.820312 C 29.367188 16.847656 29.054688 16.914062 28.632812 16.972656 C 28.5 16.992188 28.074219 17.003906 27.6875 17 C 27.117188 16.996094 26.964844 17.003906 26.921875 17.046875 C 26.863281 17.109375 26.78125 17.410156 26.742188 17.703125 C 26.730469 17.820312 26.703125 17.921875 26.683594 17.933594 C 26.664062 17.945312 26.652344 17.988281 26.652344 18.023438 C 26.652344 18.097656 26.402344 18.671875 26.339844 18.734375 C 26.320312 18.761719 26.269531 18.824219 26.230469 18.878906 C 25.953125 19.257812 25.714844 19.484375 25.3125 19.75 C 25.046875 19.921875 24.433594 20.246094 24.246094 20.316406 C 24.03125 20.390625 23.78125 20.453125 23.585938 20.476562 C 23.464844 20.488281 23.308594 20.503906 23.242188 20.515625 C 23.117188 20.535156 23.117188 20.539062 23.1875 20.605469 C 23.285156 20.703125 23.605469 20.75 24.179688 20.75 L 24.632812 20.75 L 24.699219 20.902344 C 24.769531 21.066406 24.855469 21.277344 24.941406 21.5 C 25.019531 21.710938 25.164062 22.089844 25.253906 22.3125 C 25.292969 22.421875 25.328125 22.539062 25.328125 22.574219 C 25.328125 22.605469 25.34375 22.640625 25.363281 22.65625 C 25.378906 22.667969 25.40625 22.730469 25.421875 22.792969 C 25.449219 22.921875 25.542969 23.234375 25.589844 23.347656 C 25.609375 23.386719 25.640625 23.492188 25.664062 23.582031 C 25.746094 23.933594 25.808594 24.152344 25.867188 24.363281 C 26.179688 25.507812 26.355469 27.132812 26.25 27.996094 C 26.109375 29.199219 25.808594 29.890625 25.152344 30.511719 C 24.980469 30.679688 24.820312 30.8125 24.792969 30.8125 C 24.769531 30.8125 24.722656 30.835938 24.699219 30.863281 C 24.632812 30.925781 24.105469 31.175781 24.039062 31.175781 C 24.011719 31.175781 23.972656 31.191406 23.953125 31.210938 C 23.917969 31.238281 23.453125 31.34375 22.996094 31.429688 C 22.875 31.449219 22.621094 31.46875 22.429688 31.46875 C 22.089844 31.46875 22.089844 31.46875 22.152344 31.394531 C 22.191406 31.355469 22.253906 31.316406 22.296875 31.300781 C 22.4375 31.257812 22.761719 31.03125 22.742188 30.996094 C 22.703125 30.9375 22.578125 30.953125 22.191406 31.050781 C 21.992188 31.101562 21.738281 31.160156 21.625 31.175781 C 21.511719 31.195312 21.328125 31.226562 21.21875 31.246094 C 20.421875 31.390625 18.90625 31.445312 18.261719 31.355469 C 18.125 31.335938 17.882812 31.304688 17.730469 31.285156 C 17.445312 31.253906 17 31.167969 16.777344 31.105469 C 16.429688 31.011719 16.144531 30.957031 16.089844 30.972656 C 16.039062 30.996094 16.039062 31.007812 16.105469 31.066406 C 16.144531 31.105469 16.269531 31.183594 16.382812 31.25 C 16.722656 31.4375 16.722656 31.46875 16.386719 31.46875 C 16.101562 31.46875 15.554688 31.394531 15.234375 31.320312 C 14.394531 31.113281 13.773438 30.730469 13.316406 30.140625 C 13.113281 29.875 12.773438 29.214844 12.773438 29.085938 C 12.773438 29.054688 12.753906 28.953125 12.722656 28.859375 C 12.699219 28.765625 12.652344 28.589844 12.628906 28.46875 C 12.566406 28.15625 12.539062 26.796875 12.585938 26.398438 C 12.703125 25.523438 12.785156 25.027344 12.902344 24.5625 C 12.9375 24.433594 12.984375 24.238281 13.011719 24.128906 C 13.128906 23.667969 13.144531 23.59375 13.195312 23.457031 C 13.222656 23.375 13.300781 23.140625 13.363281 22.929688 C 13.429688 22.71875 13.5 22.496094 13.527344 22.4375 C 13.554688 22.375 13.605469 22.238281 13.640625 22.128906 C 13.675781 22.019531 13.71875 21.914062 13.734375 21.894531 C 13.75 21.875 13.765625 21.839844 13.765625 21.808594 C 13.765625 21.78125 13.789062 21.707031 13.816406 21.644531 C 13.847656 21.582031 13.929688 21.375 14.003906 21.183594 C 14.082031 20.996094 14.160156 20.816406 14.179688 20.792969 C 14.203125 20.761719 14.347656 20.75 14.644531 20.75 C 15.160156 20.75 15.519531 20.703125 15.597656 20.621094 C 15.683594 20.539062 15.613281 20.507812 15.292969 20.484375 C 15.054688 20.464844 14.773438 20.398438 14.535156 20.304688 C 13.609375 19.929688 12.96875 19.476562 12.539062 18.878906 C 12.367188 18.640625 12.160156 18.234375 12.125 18.058594 C 12.113281 17.996094 12.089844 17.941406 12.074219 17.929688 C 12.054688 17.917969 12.039062 17.875 12.039062 17.832031 C 12.039062 17.675781 11.921875 17.117188 11.875 17.058594 C 11.835938 17 11.757812 16.996094 11.121094 17 C 10.183594 17.007812 9.691406 16.945312 9.109375 16.738281 C 7.890625 16.300781 7.128906 15.417969 6.789062 14.050781 C 6.722656 13.78125 6.511719 13.695312 6.277344 13.828125 C 6.089844 13.941406 6.078125 13.921875 5.914062 13.0625 C 5.84375 12.71875 5.820312 11.832031 5.875 11.519531 C 5.957031 10.980469 5.980469 10.878906 6.039062 10.703125 C 6.3125 9.875 6.769531 9.222656 7.433594 8.691406 C 7.578125 8.574219 7.699219 8.472656 7.703125 8.457031 C 7.707031 8.441406 7.730469 8.429688 7.75 8.429688 C 7.765625 8.429688 7.890625 8.359375 8.027344 8.273438 C 8.515625 7.964844 9.027344 7.753906 9.914062 7.507812 C 10.152344 7.4375 10.203125 7.398438 10.230469 7.21875 C 10.246094 7.109375 10.230469 7.074219 10.078125 6.902344 L 9.902344 6.710938 L 9.992188 6.664062 C 10.5 6.402344 11.75 6.375 12.316406 6.609375 C 13.097656 6.941406 13.609375 7.3125 14.167969 7.957031 C 14.226562 8.027344 14.316406 8.132812 14.367188 8.195312 C 14.421875 8.253906 14.507812 8.375 14.5625 8.464844 C 14.617188 8.558594 14.707031 8.695312 14.765625 8.773438 C 14.820312 8.847656 14.867188 8.929688 14.867188 8.945312 C 14.867188 8.984375 15.019531 9.195312 15.085938 9.253906 C 15.191406 9.339844 15.34375 9.304688 15.59375 9.144531 C 15.867188 8.96875 15.917969 8.941406 16.300781 8.753906 C 16.792969 8.515625 17.519531 8.285156 18.066406 8.195312 C 18.140625 8.183594 18.246094 8.140625 18.296875 8.097656 C 18.378906 8.035156 18.390625 7.996094 18.390625 7.816406 C 18.390625 7.699219 18.371094 7.550781 18.351562 7.488281 C 18.320312 7.410156 18.320312 7.359375 18.347656 7.332031 C 18.398438 7.28125 18.707031 7.429688 18.894531 7.597656 C 19.070312 7.757812 19.179688 7.777344 19.320312 7.667969 C 19.460938 7.558594 19.507812 7.300781 19.480469 6.789062 L 19.460938 6.355469 L 19.613281 6.4375 C 19.695312 6.484375 19.859375 6.617188 19.980469 6.738281 Z M 13.398438 21.09375 C 13.398438 21.121094 13.382812 21.148438 13.363281 21.148438 C 13.34375 21.148438 13.335938 21.121094 13.347656 21.09375 C 13.363281 21.066406 13.375 21.039062 13.382812 21.039062 C 13.390625 21.039062 13.398438 21.066406 13.398438 21.09375 Z M 13.253906 21.445312 C 13.210938 21.574219 13.160156 21.707031 13.140625 21.746094 C 13.125 21.789062 13.050781 22 12.976562 22.21875 C 12.898438 22.4375 12.828125 22.652344 12.8125 22.691406 C 12.796875 22.734375 12.746094 22.890625 12.703125 23.039062 C 12.621094 23.308594 12.605469 23.355469 12.503906 23.710938 C 12.472656 23.808594 12.421875 24.015625 12.390625 24.164062 C 12.355469 24.3125 12.304688 24.535156 12.277344 24.65625 C 12.027344 25.753906 11.953125 26.511719 11.980469 27.671875 C 11.992188 28.109375 12.019531 28.53125 12.039062 28.609375 C 12.0625 28.683594 12.078125 28.78125 12.070312 28.824219 C 12.058594 28.894531 12.054688 28.894531 11.9375 28.800781 C 11.667969 28.574219 11.421875 28.0625 11.324219 27.539062 C 11.253906 27.152344 11.253906 26.804688 11.324219 26.273438 C 11.375 25.886719 11.5625 25.042969 11.636719 24.871094 C 11.65625 24.832031 11.679688 24.746094 11.691406 24.679688 C 11.707031 24.613281 11.738281 24.515625 11.769531 24.460938 C 11.796875 24.40625 11.820312 24.335938 11.820312 24.300781 C 11.820312 24.269531 11.839844 24.230469 11.855469 24.21875 C 11.878906 24.207031 11.894531 24.167969 11.894531 24.136719 C 11.894531 24.101562 11.917969 24.027344 11.949219 23.96875 C 11.976562 23.914062 12.003906 23.847656 12.003906 23.828125 C 12.003906 23.808594 12.027344 23.742188 12.054688 23.679688 C 12.085938 23.617188 12.152344 23.464844 12.203125 23.347656 C 12.320312 23.058594 12.636719 22.386719 12.777344 22.109375 C 12.84375 21.992188 12.953125 21.777344 13.023438 21.640625 C 13.097656 21.496094 13.167969 21.378906 13.179688 21.367188 C 13.191406 21.355469 13.226562 21.308594 13.25 21.265625 C 13.332031 21.109375 13.332031 21.214844 13.253906 21.445312 Z M 25.65625 21.519531 C 25.660156 21.535156 25.644531 21.546875 25.625 21.546875 C 25.582031 21.546875 25.546875 21.4375 25.574219 21.390625 C 25.597656 21.355469 25.648438 21.4375 25.65625 21.519531 Z M 26.039062 22.210938 C 26.292969 22.730469 26.496094 23.175781 26.796875 23.890625 C 26.835938 23.984375 27.070312 24.652344 27.121094 24.816406 C 27.144531 24.886719 27.195312 25.082031 27.238281 25.253906 C 27.277344 25.425781 27.332031 25.609375 27.347656 25.671875 C 27.390625 25.808594 27.457031 26.335938 27.484375 26.773438 C 27.53125 27.519531 27.320312 28.257812 26.9375 28.6875 C 26.75 28.902344 26.730469 28.867188 26.792969 28.40625 C 26.894531 27.632812 26.851562 26.289062 26.703125 25.492188 C 26.550781 24.6875 26.445312 24.203125 26.371094 23.984375 C 26.34375 23.890625 26.320312 23.792969 26.320312 23.765625 C 26.320312 23.730469 26.28125 23.578125 26.230469 23.417969 C 26.132812 23.117188 26.035156 22.800781 25.929688 22.457031 C 25.890625 22.347656 25.855469 22.238281 25.839844 22.21875 C 25.824219 22.199219 25.804688 22.128906 25.789062 22.0625 C 25.773438 22 25.742188 21.902344 25.710938 21.847656 C 25.652344 21.734375 25.640625 21.585938 25.691406 21.585938 C 25.710938 21.585938 25.867188 21.867188 26.039062 22.210938 Z M 13.4375 31.125 C 14.246094 31.726562 15.074219 31.988281 16.371094 32.050781 C 16.667969 32.0625 16.910156 32.074219 16.921875 32.078125 C 16.96875 32.09375 16.6875 32.234375 16.542969 32.269531 C 15.460938 32.542969 14.386719 32.546875 13.359375 32.273438 C 13.132812 32.214844 12.738281 32.003906 12.644531 31.898438 C 12.523438 31.753906 12.523438 31.582031 12.648438 31.433594 C 12.742188 31.328125 13.195312 31.03125 13.273438 31.03125 C 13.292969 31.03125 13.371094 31.074219 13.4375 31.125 Z M 25.707031 31.128906 C 26.355469 31.484375 26.378906 31.832031 25.792969 32.125 C 25.257812 32.386719 24.164062 32.53125 23.273438 32.453125 C 22.550781 32.390625 21.796875 32.1875 21.90625 32.082031 C 21.917969 32.066406 22.164062 32.046875 22.449219 32.039062 C 22.730469 32.03125 23.09375 32.003906 23.253906 31.980469 C 23.59375 31.933594 24.375 31.722656 24.375 31.683594 C 24.375 31.667969 24.425781 31.640625 24.488281 31.632812 C 24.554688 31.617188 24.6875 31.558594 24.785156 31.5 C 24.886719 31.441406 24.972656 31.394531 24.984375 31.394531 C 24.992188 31.394531 25.101562 31.324219 25.226562 31.230469 C 25.476562 31.050781 25.539062 31.039062 25.707031 31.128906 Z M 25.707031 31.128906 "/>
<path style=" stroke:none;fill-rule:nonzero;fill:rgb(0%,0%,0%);fill-opacity:1;" d="M 10.132812 8.484375 C 9.980469 8.511719 9.75 8.566406 9.617188 8.613281 C 9.390625 8.6875 8.851562 8.929688 8.808594 8.972656 C 8.800781 8.984375 8.695312 9.054688 8.582031 9.128906 C 7.988281 9.511719 7.347656 10.363281 7.105469 11.082031 C 6.949219 11.566406 6.921875 11.746094 6.921875 12.390625 C 6.925781 13.097656 6.96875 13.339844 7.183594 13.878906 C 7.636719 14.996094 8.484375 15.785156 9.671875 16.1875 C 10.117188 16.339844 10.898438 16.386719 11.425781 16.300781 C 11.609375 16.269531 11.796875 16.21875 11.84375 16.1875 C 11.945312 16.121094 11.992188 15.972656 12.019531 15.605469 C 12.035156 15.445312 12.058594 15.242188 12.078125 15.152344 C 12.097656 15.0625 12.148438 14.816406 12.191406 14.609375 C 12.277344 14.1875 12.273438 14.191406 12.464844 13.570312 C 12.539062 13.332031 12.617188 13.121094 12.632812 13.097656 C 12.648438 13.082031 12.664062 13.042969 12.664062 13.007812 C 12.664062 12.980469 12.6875 12.914062 12.710938 12.863281 C 12.738281 12.8125 12.800781 12.675781 12.847656 12.554688 C 13.074219 11.992188 13.472656 11.304688 13.902344 10.734375 C 14.171875 10.371094 14.167969 10.3125 13.820312 9.882812 C 13.355469 9.308594 12.875 8.964844 12.097656 8.648438 C 11.609375 8.449219 10.753906 8.378906 10.132812 8.484375 Z M 11.25 9.03125 C 11.890625 9.121094 12.328125 9.304688 12.886719 9.738281 C 13.113281 9.914062 13.4375 10.269531 13.4375 10.34375 C 13.4375 10.382812 13.367188 10.496094 13.285156 10.605469 C 13.199219 10.714844 13.097656 10.871094 13.054688 10.953125 C 13.011719 11.035156 12.925781 11.171875 12.871094 11.261719 C 12.757812 11.433594 12.460938 12.003906 12.375 12.214844 C 12.34375 12.28125 12.277344 12.433594 12.222656 12.554688 C 12.125 12.78125 11.835938 13.660156 11.734375 14.042969 C 11.613281 14.515625 11.453125 15.363281 11.453125 15.542969 C 11.453125 15.710938 11.339844 15.769531 10.949219 15.796875 C 10.609375 15.816406 10.222656 15.761719 9.78125 15.625 C 9.210938 15.449219 8.683594 15.089844 8.285156 14.609375 C 8.003906 14.269531 8 14.261719 7.800781 13.863281 C 7.570312 13.394531 7.480469 12.972656 7.484375 12.355469 C 7.488281 11.640625 7.621094 11.183594 8.023438 10.496094 C 8.050781 10.453125 8.15625 10.316406 8.261719 10.183594 C 8.785156 9.5625 9.503906 9.152344 10.296875 9.03125 C 10.6875 8.96875 10.816406 8.96875 11.25 9.03125 Z M 11.25 9.03125 "/>
<path style=" stroke:none;fill-rule:nonzero;fill:rgb(0%,0%,0%);fill-opacity:1;" d="M 27.3125 8.480469 C 26.839844 8.558594 26.289062 8.777344 25.8125 9.074219 C 25.558594 9.234375 24.988281 9.792969 24.804688 10.066406 C 24.628906 10.324219 24.625 10.464844 24.785156 10.6875 C 24.851562 10.773438 24.925781 10.863281 24.949219 10.890625 C 24.96875 10.910156 25.042969 11.015625 25.113281 11.125 C 25.179688 11.230469 25.257812 11.339844 25.28125 11.367188 C 25.308594 11.390625 25.328125 11.433594 25.328125 11.449219 C 25.328125 11.46875 25.394531 11.589844 25.480469 11.722656 C 25.5625 11.855469 25.640625 12.003906 25.660156 12.042969 C 25.699219 12.144531 25.984375 12.753906 26.027344 12.835938 C 26.050781 12.871094 26.0625 12.917969 26.0625 12.941406 C 26.0625 12.960938 26.089844 13.03125 26.117188 13.09375 C 26.1875 13.242188 26.398438 13.863281 26.433594 14.027344 C 26.449219 14.09375 26.503906 14.34375 26.554688 14.570312 C 26.605469 14.800781 26.664062 15.0625 26.6875 15.152344 C 26.707031 15.242188 26.738281 15.476562 26.757812 15.667969 C 26.792969 16.042969 26.832031 16.144531 26.945312 16.207031 C 27.105469 16.289062 27.679688 16.359375 28.113281 16.339844 C 28.695312 16.320312 28.992188 16.25 29.46875 16.039062 C 29.578125 15.992188 29.675781 15.953125 29.691406 15.953125 C 29.789062 15.953125 30.453125 15.464844 30.710938 15.203125 C 31.234375 14.667969 31.589844 14.035156 31.777344 13.28125 C 31.867188 12.914062 31.867188 11.851562 31.777344 11.5 C 31.632812 10.945312 31.484375 10.609375 31.183594 10.148438 C 30.96875 9.820312 30.460938 9.300781 30.1875 9.125 C 30.089844 9.0625 29.996094 9 29.972656 8.984375 C 29.871094 8.90625 29.464844 8.71875 29.203125 8.628906 C 28.636719 8.4375 27.933594 8.382812 27.3125 8.480469 Z M 28.386719 9.015625 C 28.535156 9.035156 28.742188 9.078125 28.855469 9.105469 C 29.171875 9.191406 29.792969 9.519531 30.058594 9.746094 C 30.285156 9.933594 30.640625 10.328125 30.742188 10.496094 C 31.152344 11.191406 31.28125 11.636719 31.28125 12.371094 C 31.285156 13.023438 31.175781 13.472656 30.910156 13.984375 C 30.753906 14.273438 30.738281 14.296875 30.480469 14.609375 C 30.082031 15.089844 29.554688 15.449219 28.980469 15.625 C 28.542969 15.761719 28.15625 15.816406 27.816406 15.796875 C 27.425781 15.769531 27.3125 15.710938 27.3125 15.546875 C 27.3125 15.359375 27.128906 14.433594 26.996094 13.953125 C 26.886719 13.546875 26.628906 12.785156 26.523438 12.546875 C 26.355469 12.179688 25.96875 11.414062 25.878906 11.28125 C 25.824219 11.203125 25.773438 11.113281 25.761719 11.082031 C 25.746094 11.054688 25.648438 10.898438 25.535156 10.738281 C 25.421875 10.578125 25.328125 10.410156 25.328125 10.367188 C 25.328125 10.273438 25.625 9.933594 25.875 9.738281 C 26.414062 9.324219 26.894531 9.113281 27.496094 9.03125 C 27.90625 8.972656 28.070312 8.96875 28.386719 9.015625 Z M 28.386719 9.015625 "/>
<path style=" stroke:none;fill-rule:nonzero;fill:rgb(0%,0%,0%);fill-opacity:1;" d="M 15.710938 14.566406 C 15.429688 14.609375 15.082031 14.835938 14.933594 15.082031 C 14.835938 15.234375 14.746094 15.605469 14.769531 15.777344 C 14.820312 16.214844 14.96875 16.476562 15.304688 16.691406 C 15.679688 16.941406 16.070312 16.960938 16.484375 16.75 C 16.84375 16.574219 17.035156 16.304688 17.097656 15.90625 C 17.179688 15.402344 17.007812 15.007812 16.59375 14.730469 C 16.328125 14.558594 16.089844 14.511719 15.710938 14.566406 Z M 16.449219 15.035156 C 16.609375 15.171875 16.507812 15.480469 16.300781 15.480469 C 16.175781 15.480469 16.078125 15.375 16.078125 15.230469 C 16.078125 15.007812 16.28125 14.902344 16.449219 15.035156 Z M 16.449219 15.035156 "/>
<path style=" stroke:none;fill-rule:nonzero;fill:rgb(0%,0%,0%);fill-opacity:1;" d="M 22.519531 14.574219 C 22.28125 14.621094 21.992188 14.839844 21.8125 15.105469 C 21.675781 15.308594 21.675781 15.3125 21.675781 15.695312 C 21.675781 16.023438 21.6875 16.101562 21.761719 16.230469 C 21.890625 16.476562 22.058594 16.640625 22.296875 16.757812 C 22.785156 17.003906 23.296875 16.90625 23.714844 16.496094 C 23.871094 16.335938 24.007812 15.980469 24.007812 15.714844 C 24.007812 15.535156 23.917969 15.226562 23.828125 15.078125 C 23.570312 14.671875 23.042969 14.46875 22.519531 14.574219 Z M 23.394531 15.085938 C 23.484375 15.1875 23.472656 15.285156 23.367188 15.390625 C 23.226562 15.53125 23.054688 15.496094 22.988281 15.304688 C 22.894531 15.042969 23.207031 14.875 23.394531 15.085938 Z M 23.394531 15.085938 "/>
<path style=" stroke:none;fill-rule:nonzero;fill:rgb(0%,0%,0%);fill-opacity:1;" d="M 19.035156 14.714844 C 18.320312 14.863281 17.753906 15.417969 17.476562 16.230469 C 17.367188 16.554688 17.363281 17.4375 17.472656 17.75 C 17.621094 18.175781 17.996094 18.515625 18.433594 18.625 C 19.222656 18.828125 20.328125 18.742188 20.808594 18.441406 C 21.089844 18.269531 21.296875 17.960938 21.371094 17.625 C 21.519531 16.9375 21.433594 16.265625 21.136719 15.761719 C 21.078125 15.667969 21.035156 15.578125 21.035156 15.558594 C 21.035156 15.503906 20.464844 14.980469 20.328125 14.914062 C 19.980469 14.726562 19.398438 14.640625 19.035156 14.714844 Z M 19.035156 14.714844 "/>
<path style=" stroke:none;fill-rule:nonzero;fill:rgb(0%,0%,0%);fill-opacity:1;" d="M 17.722656 18.953125 C 17.640625 18.996094 17.621094 19.03125 17.621094 19.148438 C 17.621094 19.40625 17.945312 19.679688 18.402344 19.804688 C 18.621094 19.863281 18.882812 19.816406 19.179688 19.65625 L 19.382812 19.550781 L 19.585938 19.65625 C 19.910156 19.824219 20.140625 19.863281 20.414062 19.785156 C 20.890625 19.65625 21.175781 19.375 21.152344 19.070312 C 21.144531 19.003906 20.980469 18.902344 20.898438 18.917969 C 20.871094 18.921875 20.835938 18.925781 20.820312 18.929688 C 20.804688 18.929688 20.734375 18.984375 20.664062 19.042969 C 20.5 19.191406 20.292969 19.296875 20.164062 19.296875 C 20.066406 19.296875 19.933594 19.226562 19.550781 18.992188 L 19.382812 18.886719 L 19.222656 18.984375 C 19.128906 19.035156 19.042969 19.09375 19.03125 19.117188 C 18.996094 19.171875 18.695312 19.296875 18.601562 19.296875 C 18.492188 19.292969 18.246094 19.175781 18.128906 19.066406 C 18.035156 18.976562 17.902344 18.894531 17.851562 18.894531 C 17.835938 18.898438 17.777344 18.925781 17.722656 18.953125 Z M 17.722656 18.953125 "/>
<path style=" stroke:none;fill-rule:nonzero;fill:rgb(0%,0%,0%);fill-opacity:1;" d="M 30.390625 30.65625 C 29.679688 31.394531 28.898438 32.191406 28.664062 32.429688 L 28.230469 32.867188 L 28.371094 33.003906 L 28.511719 33.148438 L 29.082031 32.570312 C 29.394531 32.253906 29.710938 31.925781 29.789062 31.839844 C 29.863281 31.753906 29.945312 31.6875 29.96875 31.6875 C 30.011719 31.691406 30.203125 31.863281 31.386719 32.996094 C 31.8125 33.40625 32.175781 33.742188 32.191406 33.75 C 32.203125 33.753906 32.339844 33.628906 32.5 33.472656 L 32.785156 33.191406 L 31.894531 32.335938 C 31.402344 31.867188 30.90625 31.398438 30.789062 31.289062 C 30.675781 31.179688 30.578125 31.074219 30.578125 31.058594 C 30.578125 31.035156 30.78125 30.8125 31.03125 30.5625 C 31.28125 30.3125 31.601562 29.980469 31.746094 29.832031 L 32.007812 29.558594 L 31.894531 29.441406 C 31.828125 29.378906 31.757812 29.324219 31.734375 29.324219 C 31.710938 29.324219 31.109375 29.921875 30.390625 30.65625 Z M 30.390625 30.65625 "/>
<path style=" stroke:none;fill-rule:nonzero;fill:rgb(0%,0%,0%);fill-opacity:1;" d="M 6.992188 30.042969 C 6.710938 30.316406 6.148438 30.859375 5.746094 31.242188 L 5.015625 31.941406 L 5.160156 32.09375 C 5.4375 32.382812 6.445312 33.410156 6.828125 33.792969 C 7.402344 34.359375 7.789062 34.644531 8.183594 34.773438 C 8.765625 34.96875 9.25 34.710938 9.25 34.203125 C 9.25 34.027344 9.117188 33.65625 8.976562 33.429688 C 8.925781 33.347656 8.882812 33.269531 8.890625 33.265625 C 8.898438 33.257812 8.992188 33.296875 9.105469 33.347656 C 9.339844 33.460938 9.710938 33.5 9.875 33.429688 C 10.058594 33.355469 10.148438 33.164062 10.148438 32.867188 C 10.144531 32.652344 10.128906 32.574219 10.015625 32.339844 C 9.941406 32.191406 9.792969 31.953125 9.6875 31.816406 C 9.53125 31.609375 7.742188 29.738281 7.558594 29.589844 C 7.519531 29.558594 7.410156 29.640625 6.992188 30.042969 Z M 8.339844 30.949219 C 9.292969 31.902344 9.507812 32.195312 9.507812 32.523438 C 9.507812 32.828125 9.203125 32.972656 8.863281 32.832031 C 8.671875 32.753906 8.324219 32.46875 7.96875 32.097656 C 7.796875 31.921875 7.519531 31.636719 7.34375 31.460938 L 7.039062 31.144531 L 7.417969 30.78125 C 7.628906 30.582031 7.800781 30.417969 7.804688 30.414062 C 7.804688 30.414062 8.046875 30.652344 8.339844 30.949219 Z M 6.941406 31.601562 C 7.027344 31.699219 7.324219 32.003906 7.59375 32.285156 C 8.378906 33.085938 8.585938 33.390625 8.589844 33.730469 C 8.589844 33.886719 8.574219 33.925781 8.460938 34.035156 C 8.332031 34.164062 8.320312 34.167969 8.113281 34.144531 C 7.769531 34.117188 7.570312 33.96875 6.691406 33.09375 C 6.261719 32.667969 5.910156 32.296875 5.910156 32.273438 C 5.910156 32.230469 6.714844 31.433594 6.757812 31.433594 C 6.773438 31.433594 6.855469 31.507812 6.941406 31.601562 Z M 6.941406 31.601562 "/>
<path style=" stroke:none;fill-rule:nonzero;fill:rgb(0%,0%,0%);fill-opacity:1;" d="M 27.15625 33.558594 C 26.972656 33.65625 26.867188 33.777344 26.804688 33.976562 C 26.695312 34.316406 26.625 35.789062 26.679688 36.589844 C 26.71875 37.0625 26.726562 37.121094 26.796875 37.179688 C 26.957031 37.308594 27.292969 37.21875 27.511719 36.992188 L 27.617188 36.886719 L 27.535156 36.703125 C 27.414062 36.429688 27.429688 36.296875 27.601562 36.144531 C 27.761719 36.003906 28.113281 35.789062 28.582031 35.546875 L 28.769531 35.453125 L 28.941406 35.570312 C 29.183594 35.738281 29.339844 35.792969 29.550781 35.792969 C 29.777344 35.792969 29.9375 35.730469 30.09375 35.574219 C 30.265625 35.398438 30.242188 35.335938 29.953125 35.222656 C 29.824219 35.167969 29.679688 35.101562 29.632812 35.074219 L 29.546875 35.019531 L 29.65625 34.945312 C 29.847656 34.828125 29.84375 34.632812 29.652344 34.570312 C 29.617188 34.558594 29.464844 34.585938 29.328125 34.632812 C 29.074219 34.714844 29.074219 34.714844 28.992188 34.644531 C 28.945312 34.605469 28.695312 34.382812 28.429688 34.152344 C 27.628906 33.453125 27.644531 33.464844 27.480469 33.464844 C 27.394531 33.46875 27.253906 33.511719 27.15625 33.558594 Z M 28.257812 35.109375 C 28.296875 35.15625 28.246094 35.203125 27.882812 35.425781 C 27.652344 35.566406 27.453125 35.683594 27.4375 35.683594 C 27.40625 35.683594 27.453125 34.597656 27.480469 34.550781 C 27.5 34.519531 28.167969 35.003906 28.257812 35.109375 Z M 28.257812 35.109375 "/>
<path style=" stroke:none;fill-rule:nonzero;fill:rgb(0%,0%,0%);fill-opacity:1;" d="M 11.746094 33.878906 C 11.226562 34.089844 10.40625 34.542969 9.683594 35.015625 C 9.101562 35.394531 9.050781 35.46875 9.234375 35.707031 C 9.351562 35.859375 9.574219 35.972656 9.734375 35.96875 C 9.835938 35.96875 9.878906 35.941406 9.964844 35.816406 C 10.027344 35.734375 10.121094 35.644531 10.175781 35.613281 C 10.265625 35.5625 10.292969 35.566406 10.46875 35.621094 C 10.613281 35.664062 11.523438 36.128906 11.628906 36.214844 C 11.636719 36.21875 11.644531 36.375 11.652344 36.5625 C 11.65625 36.859375 11.667969 36.925781 11.757812 37.070312 C 11.902344 37.316406 12.175781 37.480469 12.394531 37.457031 C 12.511719 37.445312 12.511719 37.460938 12.460938 36.960938 C 12.445312 36.785156 12.449219 36.699219 12.472656 36.699219 C 12.496094 36.699219 12.523438 36.714844 12.53125 36.734375 C 12.570312 36.792969 12.734375 36.796875 12.8125 36.746094 C 12.933594 36.664062 12.902344 36.535156 12.714844 36.355469 C 12.625 36.265625 12.53125 36.191406 12.515625 36.191406 C 12.460938 36.191406 12.476562 36.039062 12.628906 35.207031 C 12.707031 34.765625 12.773438 34.351562 12.773438 34.289062 C 12.773438 34.058594 12.402344 33.792969 12.097656 33.796875 C 12.015625 33.796875 11.855469 33.835938 11.746094 33.878906 Z M 11.804688 34.800781 C 11.792969 34.859375 11.769531 35.074219 11.746094 35.285156 C 11.722656 35.492188 11.699219 35.671875 11.691406 35.6875 C 11.675781 35.703125 10.847656 35.308594 10.792969 35.257812 C 10.78125 35.246094 10.816406 35.210938 10.863281 35.179688 C 11.011719 35.074219 11.730469 34.703125 11.777344 34.703125 C 11.808594 34.703125 11.820312 34.730469 11.804688 34.800781 Z M 11.804688 34.800781 "/>
<path style=" stroke:none;fill-rule:nonzero;fill:rgb(0%,0%,0%);fill-opacity:1;" d="M 25.28125 34.667969 C 25.203125 34.6875 25.089844 34.726562 25.027344 34.761719 C 24.839844 34.855469 24.261719 35.460938 23.84375 36 C 23.625 36.277344 23.433594 36.507812 23.417969 36.511719 C 23.359375 36.535156 22.882812 36.125 22.578125 35.796875 L 22.285156 35.488281 L 22.027344 35.472656 C 21.660156 35.449219 21.464844 35.511719 21.296875 35.703125 L 21.164062 35.855469 L 21.070312 35.789062 C 20.933594 35.691406 20.617188 35.640625 20.4375 35.6875 C 20.277344 35.726562 19.957031 35.960938 19.765625 36.164062 C 19.703125 36.226562 19.53125 36.4375 19.382812 36.628906 C 19.234375 36.816406 19.105469 36.988281 19.089844 37.003906 C 19.074219 37.019531 18.96875 36.855469 18.855469 36.644531 C 18.589844 36.148438 18.472656 35.980469 18.257812 35.796875 C 18.03125 35.597656 17.769531 35.519531 17.523438 35.574219 C 17.34375 35.613281 17.214844 35.699219 17.214844 35.769531 C 17.214844 35.792969 17.3125 35.914062 17.425781 36.046875 C 17.746094 36.410156 18.289062 37.273438 18.445312 37.671875 L 18.507812 37.824219 L 18.339844 38.054688 C 18.136719 38.335938 18.050781 38.53125 18.082031 38.632812 C 18.117188 38.742188 18.375 38.84375 18.632812 38.84375 C 18.835938 38.84375 18.863281 38.832031 18.972656 38.722656 C 19.035156 38.664062 19.144531 38.484375 19.214844 38.335938 C 19.351562 38.042969 19.742188 37.457031 20.121094 36.984375 C 20.328125 36.722656 21.109375 35.925781 21.132812 35.953125 C 21.136719 35.957031 21.125 36.0625 21.105469 36.183594 C 21.054688 36.453125 21.089844 36.730469 21.277344 37.582031 C 21.417969 38.230469 21.503906 38.464844 21.664062 38.613281 C 21.757812 38.703125 21.800781 38.71875 21.980469 38.714844 C 22.21875 38.714844 22.578125 38.5625 22.578125 38.457031 C 22.578125 38.421875 22.503906 38.242188 22.414062 38.046875 C 22.246094 37.675781 22.152344 37.300781 22.113281 36.804688 L 22.089844 36.5 L 22.417969 36.820312 C 22.878906 37.269531 23.148438 37.425781 23.476562 37.425781 C 23.714844 37.425781 23.847656 37.367188 23.898438 37.234375 C 23.992188 36.980469 24.089844 36.796875 24.226562 36.609375 C 24.421875 36.351562 24.816406 35.886719 24.851562 35.871094 C 24.867188 35.863281 24.898438 36.007812 24.925781 36.179688 C 25.015625 36.851562 25.148438 37.539062 25.203125 37.65625 C 25.238281 37.722656 25.296875 37.796875 25.339844 37.828125 C 25.554688 37.957031 26.246094 37.777344 26.246094 37.589844 C 26.246094 37.566406 26.199219 37.441406 26.136719 37.316406 C 25.929688 36.875 25.785156 35.910156 25.816406 35.1875 C 25.835938 34.753906 25.832031 34.746094 25.75 34.710938 C 25.617188 34.648438 25.433594 34.632812 25.28125 34.667969 Z M 25.28125 34.667969 "/>
<path style=" stroke:none;fill-rule:nonzero;fill:rgb(0%,0%,0%);fill-opacity:1;" d="M 13.925781 34.835938 C 13.71875 34.875 13.722656 35.105469 13.929688 35.179688 C 14.082031 35.234375 14.085938 35.253906 13.984375 35.390625 C 13.945312 35.449219 13.855469 35.621094 13.78125 35.769531 C 13.671875 36 13.632812 36.046875 13.558594 36.046875 C 13.4375 36.046875 13.390625 36.15625 13.457031 36.277344 C 13.503906 36.375 13.5 36.398438 13.414062 36.605469 C 13.15625 37.203125 13.132812 37.335938 13.253906 37.527344 C 13.484375 37.902344 14.761719 38.300781 15.734375 38.300781 C 16.171875 38.300781 16.429688 38.234375 16.609375 38.078125 C 16.96875 37.769531 16.808594 37.347656 16.191406 36.972656 L 15.953125 36.828125 L 16.414062 36.804688 C 16.894531 36.785156 17.074219 36.734375 17.214844 36.589844 C 17.355469 36.433594 17.296875 36.21875 17.050781 36 C 16.714844 35.699219 15.816406 35.265625 15.039062 35.027344 C 14.433594 34.84375 14.144531 34.792969 13.925781 34.835938 Z M 15.257812 35.558594 C 15.628906 35.683594 16.253906 35.976562 16.363281 36.078125 C 16.570312 36.277344 16.402344 36.378906 15.867188 36.378906 C 15.324219 36.378906 14.574219 36.261719 14.574219 36.179688 C 14.574219 36.117188 14.90625 35.464844 14.941406 35.464844 C 14.957031 35.464844 15.097656 35.507812 15.257812 35.558594 Z M 14.777344 36.78125 C 15.117188 36.875 15.6875 37.152344 15.839844 37.300781 C 16.089844 37.53125 15.972656 37.761719 15.574219 37.8125 C 15.207031 37.855469 14.300781 37.671875 14.125 37.511719 C 14.042969 37.433594 14.042969 37.433594 14.171875 37.109375 C 14.234375 36.953125 14.300781 36.792969 14.316406 36.746094 C 14.351562 36.660156 14.351562 36.660156 14.777344 36.78125 Z M 14.777344 36.78125 "/>
</g>
</svg>
